<svg width="40" height="30" viewBox="0 0 40 30" fill="none" xmlns="http://www.w3.org/2000/svg">
<path d="M7.48242 15.2646C3.61344 15.2646 0.476562 18.4015 0.476562 22.2705C0.476562 26.1395 3.61344 29.2764 7.48242 29.2764C11.3514 29.2764 14.4883 26.1395 14.4883 22.2705C14.4883 18.4015 11.3514 15.2646 7.48242 15.2646ZM10.4015 22.8543H8.06624V25.1896C8.06624 25.5125 7.80469 25.7734 7.48242 25.7734C7.16015 25.7734 6.8986 25.5125 6.8986 25.1896V22.8543H4.56331C4.24104 22.8543 3.97949 22.5934 3.97949 22.2705C3.97949 21.9477 4.24104 21.6867 4.56331 21.6867H6.8986V19.3514C6.8986 19.0285 7.16015 18.7676 7.48242 18.7676C7.80469 18.7676 8.06624 19.0285 8.06624 19.3514V21.6867H10.4015C10.7238 21.6867 10.9854 21.9477 10.9854 22.2705C10.9854 22.5934 10.7238 22.8543 10.4015 22.8543Z" fill="#6B69B2"/>
<path fill-rule="evenodd" clip-rule="evenodd" d="M19.2822 0.5625C21.0537 0.5625 22.4902 1.99907 22.4902 3.77051V22.3047C22.4903 22.8948 22.9695 23.3739 23.5596 23.374C24.1498 23.374 24.6288 22.8948 24.6289 22.3047V3.77051C24.6289 1.99907 26.0655 0.5625 27.8369 0.5625H37.0947C38.2759 0.562544 39.2334 1.52 39.2334 2.70117V22.6611C39.2333 23.8422 38.2758 24.7998 37.0947 24.7998H26.0156C25.5216 25.6487 24.6124 26.2256 23.5596 26.2256C22.5068 26.2255 21.5975 25.6487 21.1035 24.7998H16.125C16.3595 23.9971 16.4883 23.1489 16.4883 22.2705C16.4883 21.0175 16.232 19.8243 15.7695 18.7402H18.2129C18.8038 18.7402 19.2822 18.2611 19.2822 17.6709C19.2822 17.0807 18.8038 16.6016 18.2129 16.6016H14.4785C12.9046 14.6616 10.5413 13.3893 7.87695 13.2744V2.70117C7.87695 1.51998 8.83443 0.5625 10.0156 0.5625H19.2822ZM28.9062 16.6016C28.3153 16.6016 27.837 17.0807 27.8369 17.6709C27.8369 18.2611 28.3153 18.7402 28.9062 18.7402H33.54C34.1308 18.74 34.6094 18.261 34.6094 17.6709C34.6093 17.0808 34.1308 16.6018 33.54 16.6016H28.9062ZM12.1543 11.6113C11.5635 11.6113 11.0851 12.0906 11.085 12.6807C11.085 13.2709 11.5633 13.75 12.1543 13.75H18.2129C18.8038 13.75 19.2822 13.2709 19.2822 12.6807C19.282 12.0906 18.8037 11.6113 18.2129 11.6113H12.1543ZM28.9062 11.6113C28.3154 11.6113 27.8371 12.0906 27.8369 12.6807C27.8369 13.2709 28.3153 13.75 28.9062 13.75H34.9658C35.5566 13.7497 36.0342 13.2708 36.0342 12.6807C36.034 12.0907 35.5564 11.6116 34.9658 11.6113H28.9062ZM12.1543 6.62207C11.5633 6.62207 11.085 7.10116 11.085 7.69141C11.0852 8.28147 11.5635 8.76074 12.1543 8.76074H18.2129C18.8037 8.76074 19.282 8.28147 19.2822 7.69141C19.2822 7.10116 18.8038 6.62207 18.2129 6.62207H12.1543ZM28.9062 6.62207C28.3153 6.62207 27.8369 7.10116 27.8369 7.69141C27.8371 8.28147 28.3154 8.76074 28.9062 8.76074H34.9658C35.5564 8.76049 36.034 8.28132 36.0342 7.69141C36.0342 7.10132 35.5566 6.62232 34.9658 6.62207H28.9062Z" fill="#6B69B2"/>
<path d="M7.87695 15.2754C9.31746 15.3554 10.6407 15.8722 11.7197 16.6934C11.3455 16.8599 11.085 17.2352 11.085 17.6709C11.085 18.2611 11.5633 18.7402 12.1543 18.7402H13.5352C14.1411 19.7769 14.4883 20.9832 14.4883 22.2705L14.4795 22.6309C14.4409 23.3925 14.2785 24.1213 14.0156 24.7998H10.0156C9.14698 24.7998 8.40122 24.2809 8.06641 23.5371L8.06624 22.8543H10.4015L10.5195 22.8428C10.7472 22.7961 10.9269 22.6166 10.9736 22.3887L10.9854 22.2705C10.9854 21.9477 10.7238 21.6867 10.4015 21.6867H8.06624V19.3514C8.06624 19.1813 7.99283 19.0295 7.87695 18.9229V15.2754Z" fill="#6B69B2"/>
</svg>
