<svg width="40" height="37" viewBox="0 0 40 37" fill="none" xmlns="http://www.w3.org/2000/svg">
<path d="M7.28516 22.7957C3.41617 22.7957 0.279297 25.9325 0.279297 29.8015C0.279297 33.6705 3.41617 36.8074 7.28516 36.8074C11.1541 36.8074 14.291 33.6705 14.291 29.8015C14.291 25.9325 11.1541 22.7957 7.28516 22.7957ZM10.2043 30.3853H7.86898V32.7206C7.86898 33.0435 7.60743 33.3044 7.28516 33.3044C6.96289 33.3044 6.70133 33.0435 6.70133 32.7206V30.3853H4.36605C4.04378 30.3853 3.78223 30.1244 3.78223 29.8015C3.78223 29.4787 4.04378 29.2177 4.36605 29.2177H6.70133V26.8824C6.70133 26.5596 6.96289 26.2986 7.28516 26.2986C7.60743 26.2986 7.86898 26.5596 7.86898 26.8824V29.2177H10.2043C10.5265 29.2177 10.7881 29.4787 10.7881 29.8015C10.7881 30.1244 10.5265 30.3853 10.2043 30.3853Z" fill="#6B69B2"/>
<path fill-rule="evenodd" clip-rule="evenodd" d="M15.9805 0.368164C16.8251 0.368164 17.5136 1.05583 17.5137 1.90332V31.0527C17.5136 31.8603 16.8593 32.5137 16.0518 32.5137H15.874C16.1441 31.6577 16.291 30.7469 16.291 29.8018C16.291 28.8703 16.1483 27.9721 15.8857 27.127C15.9879 27.0011 16.0518 26.8433 16.0518 26.6689C16.0517 26.3015 15.7806 25.9965 15.4248 25.9463C15.1786 25.4275 14.8845 24.9361 14.5479 24.4775H15.3213C15.7264 24.4775 16.0516 24.1493 16.0518 23.7471C16.0518 23.3447 15.7265 23.0166 15.3213 23.0166H13.2031C11.7289 21.7296 9.83328 20.9134 7.74902 20.8076L7.28516 20.7959V1.90332C7.28527 1.05589 7.97289 0.368274 8.82031 0.368164H15.9805ZM9.47656 6.21289C9.07148 6.21307 8.74611 6.54109 8.74609 6.94336C8.74609 7.34564 9.07147 7.67365 9.47656 7.67383H15.3213C15.7265 7.67383 16.0518 7.34575 16.0518 6.94336C16.0517 6.54098 15.7265 6.21289 15.3213 6.21289H9.47656Z" fill="#6B69B2"/>
<path fill-rule="evenodd" clip-rule="evenodd" d="M27.0107 6.94336C27.8183 6.94336 28.4715 7.59678 28.4717 8.4043V31.0527C28.4716 31.8603 27.8183 32.5137 27.0107 32.5137H19.7051C18.8975 32.5137 18.2443 31.8603 18.2441 31.0527V8.4043C18.2443 7.59678 18.8975 6.94336 19.7051 6.94336H27.0107ZM20.4355 26.6689C20.0304 26.669 19.7052 26.9971 19.7051 27.3994C19.7051 27.8018 20.0303 28.1299 20.4355 28.1299H26.2803C26.6855 28.1299 27.0107 27.8018 27.0107 27.3994C27.0106 26.9971 26.6854 26.669 26.2803 26.6689H20.4355ZM20.4355 12.7881C20.0303 12.7881 19.7051 13.1162 19.7051 13.5186C19.7051 13.9209 20.0303 14.249 20.4355 14.249H26.2803C26.6855 14.249 27.0107 13.9209 27.0107 13.5186C27.0107 13.1162 26.6855 12.7881 26.2803 12.7881H20.4355Z" fill="#6B69B2"/>
<path fill-rule="evenodd" clip-rule="evenodd" d="M37.8984 0.368164C38.743 0.368315 39.4306 1.05592 39.4307 1.90332V31.0527C39.4305 31.8602 38.7772 32.5136 37.9697 32.5137H30.6641C29.8565 32.5137 29.2023 31.8603 29.2021 31.0527V1.90332C29.2023 1.05583 29.8907 0.368164 30.7354 0.368164H37.8984ZM31.3945 25.9385C30.9893 25.9385 30.6641 26.2666 30.6641 26.6689C30.6641 27.0713 30.9893 27.3994 31.3945 27.3994H37.2393C37.6443 27.3992 37.9697 27.0712 37.9697 26.6689C37.9697 26.2667 37.6443 25.9387 37.2393 25.9385H31.3945ZM31.3945 23.0166C30.9893 23.0166 30.6641 23.3447 30.6641 23.7471C30.6643 24.1493 30.9894 24.4775 31.3945 24.4775H37.2393C37.6442 24.4774 37.9695 24.1492 37.9697 23.7471C37.9697 23.3448 37.6443 23.0168 37.2393 23.0166H31.3945ZM31.3945 6.21289C30.9893 6.21289 30.6641 6.54098 30.6641 6.94336C30.6641 7.34575 30.9893 7.67383 31.3945 7.67383H37.2393C37.6443 7.67365 37.9697 7.34564 37.9697 6.94336C37.9697 6.54109 37.6443 6.21307 37.2393 6.21289H31.3945Z" fill="#6B69B2"/>
<path d="M7.64551 22.8047C8.18688 22.8321 8.71175 22.9219 9.21387 23.0654C8.93976 23.1711 8.74609 23.437 8.74609 23.7471C8.74628 24.1492 9.07159 24.4774 9.47656 24.4775H11.8379C12.333 24.9014 12.7678 25.3933 13.1289 25.9385H9.47656C9.0715 25.9387 8.74614 26.2667 8.74609 26.6689C8.74609 27.0712 9.07147 27.3992 9.47656 27.3994H13.8672C14.1408 28.1488 14.291 28.9576 14.291 29.8015L14.2822 30.1621C14.2401 30.9925 14.0518 31.7842 13.7451 32.5137H8.82031C8.46076 32.5136 8.13085 32.3887 7.86914 32.1816L7.86898 30.3853H10.2043L10.3223 30.374C10.5499 30.3274 10.7295 30.1477 10.7764 29.9199L10.7881 29.8015C10.7881 29.4787 10.5265 29.2177 10.2043 29.2177H7.86898V26.8824C7.86898 26.5998 7.66853 26.3648 7.40234 26.3105L7.28516 26.2986V22.7957L7.64551 22.8047Z" fill="#6B69B2"/>
</svg>
