<svg width="40" height="35" viewBox="0 0 40 35" fill="none" xmlns="http://www.w3.org/2000/svg">
<path d="M7.48242 20.968C3.61344 20.968 0.476562 24.1049 0.476562 27.9739C0.476562 31.8428 3.61344 34.9797 7.48242 34.9797C11.3514 34.9797 14.4883 31.8428 14.4883 27.9739C14.4883 24.1049 11.3514 20.968 7.48242 20.968ZM10.4015 28.5577H8.06624V30.893C8.06624 31.2158 7.80469 31.4768 7.48242 31.4768C7.16015 31.4768 6.8986 31.2158 6.8986 30.893V28.5577H4.56331C4.24104 28.5577 3.97949 28.2967 3.97949 27.9739C3.97949 27.651 4.24104 27.39 4.56331 27.39H6.8986V25.0547C6.8986 24.7319 7.16015 24.4709 7.48242 24.4709C7.80469 24.4709 8.06624 24.7319 8.06624 25.0547V27.39H10.4015C10.7238 27.39 10.9854 27.651 10.9854 27.9739C10.9854 28.2967 10.7238 28.5577 10.4015 28.5577Z" fill="#6B69B2"/>
<path fill-rule="evenodd" clip-rule="evenodd" d="M17.9561 18.1905C20.2143 18.1907 22.0615 20.0387 22.0615 22.297V29.0167C22.0613 29.6346 21.5603 30.1357 20.9424 30.1358H16.2256C16.3963 29.4431 16.4883 28.7191 16.4883 27.9737C16.4882 23.6373 13.4228 20.0167 9.34082 19.1603C10.0562 18.5561 10.9794 18.1905 11.9834 18.1905H17.9561ZM16.8359 22.67C16.4238 22.67 16.0889 23.005 16.0889 23.4171V24.9103C16.089 25.3223 16.4239 25.6564 16.8359 25.6564H18.3291C18.7411 25.6563 19.0751 25.3223 19.0752 24.9103V23.4171C19.0752 23.005 18.7412 22.6701 18.3291 22.67H16.8359Z" fill="#6B69B2"/>
<path fill-rule="evenodd" clip-rule="evenodd" d="M19.1992 0.275492C19.4837 0.284393 19.769 0.326065 20.0469 0.401469L29.752 3.01475C31.3787 3.45224 32.5137 4.93496 32.5137 6.61924V29.0167C32.5134 29.6345 32.0124 30.1356 31.3945 30.1358H23.293C23.4556 29.7956 23.5546 29.4188 23.5547 29.0167V22.297C23.5546 19.21 21.043 16.6975 17.9561 16.6974H15.3428V4.00596C15.3428 2.85254 15.8899 1.74486 16.8066 1.04307C17.4925 0.516246 18.3459 0.248875 19.1992 0.275492ZM25.7949 22.669C25.3829 22.669 25.048 23.0032 25.0479 23.4151V24.9083C25.0479 25.3204 25.3828 25.6554 25.7949 25.6554H27.2881C27.5284 25.6553 27.7335 25.5344 27.8701 25.3575H27.8857V25.3341C27.973 25.2124 28.0342 25.0695 28.0342 24.9083V23.4151C28.0341 23.2541 27.973 23.1136 27.8857 22.9913V22.9679H27.8701C27.7335 22.791 27.5292 22.6691 27.2881 22.669H25.7949ZM25.7949 17.4425C25.3828 17.4425 25.0479 17.7774 25.0479 18.1896V19.6827C25.0479 20.0948 25.3829 20.4288 25.7949 20.4288H27.2881C27.7001 20.4287 28.0341 20.0947 28.0342 19.6827V18.1896C28.0342 17.7775 27.7001 17.4426 27.2881 17.4425H25.7949ZM20.5684 12.2169C20.1566 12.2171 19.8225 12.5512 19.8223 12.963V14.4562C19.8223 14.8681 20.1564 15.203 20.5684 15.2032H22.0615C22.4736 15.2032 22.8086 14.8683 22.8086 14.4562V12.963C22.8084 12.5511 22.4735 12.2169 22.0615 12.2169H20.5684ZM25.7949 12.2169C25.3829 12.2169 25.0481 12.5511 25.0479 12.963V14.4562C25.0479 14.8683 25.3828 15.2032 25.7949 15.2032H27.2881C27.7001 15.2032 28.0342 14.8682 28.0342 14.4562V12.963C28.034 12.5511 27.7 12.217 27.2881 12.2169H25.7949ZM20.5684 6.99034C20.1564 6.99056 19.8223 7.32543 19.8223 7.73741V9.23057C19.8223 9.64252 20.1565 9.97644 20.5684 9.97666H22.0615C22.4736 9.97666 22.8086 9.64266 22.8086 9.23057V7.73741C22.8086 7.3253 22.4736 6.99034 22.0615 6.99034H20.5684ZM25.7949 6.99034C25.3828 6.99034 25.0479 7.3253 25.0479 7.73741V9.23057C25.0479 9.64266 25.3828 9.97666 25.7949 9.97666H27.2881C27.7001 9.9766 28.0341 9.64262 28.0342 9.23057V7.73741C28.0342 7.32534 27.7001 6.9904 27.2881 6.99034H25.7949Z" fill="#6B69B2"/>
<path d="M35.127 12.2179C37.3853 12.2179 39.2333 14.066 39.2334 16.3243V29.0167C39.2332 29.6347 38.7313 30.1358 38.1133 30.1358H34.0068V25.6564H35.5C35.9121 25.6564 36.247 25.3223 36.2471 24.9103V23.4171C36.2471 23.005 35.9121 22.67 35.5 22.67H34.0068V20.4308H35.5C35.9121 20.4308 36.2471 20.0958 36.2471 19.6837V18.1905C36.2469 17.7786 35.912 17.4444 35.5 17.4444H34.0068V12.2179H35.127Z" fill="#6B69B2"/>
<path d="M8.08984 20.9952C9.60115 21.1251 10.9754 21.7335 12.0596 22.67H11.6094C11.1975 22.6703 10.8633 23.0051 10.8633 23.4171V24.9103C10.8634 25.3221 11.1975 25.6561 11.6094 25.6564H13.1025C13.4753 25.6564 13.7832 25.3827 13.8389 25.0255C14.2553 25.9217 14.4883 26.9206 14.4883 27.9739L14.4795 28.3341C14.4478 28.96 14.332 29.5638 14.1465 30.1358H8.99707C8.6093 30.1358 8.26743 29.9385 8.06641 29.6388L8.06624 28.5577H10.4015L10.5195 28.546C10.7472 28.4993 10.9269 28.3198 10.9736 28.0919L10.9854 27.9739C10.9854 27.651 10.7238 27.39 10.4015 27.39H8.06624V25.0547C8.06621 24.8847 7.99283 24.7327 7.87695 24.6261V22.297C7.87696 21.8425 7.95189 21.4047 8.08984 20.9952Z" fill="#6B69B2"/>
</svg>
