<svg width="40" height="35" viewBox="0 0 40 35" fill="none" xmlns="http://www.w3.org/2000/svg">
<path d="M7.67969 20.5444C3.8107 20.5444 0.673828 23.6813 0.673828 27.5503C0.673828 31.4193 3.8107 34.5562 7.67969 34.5562C11.5487 34.5562 14.6855 31.4193 14.6855 27.5503C14.6855 23.6813 11.5487 20.5444 7.67969 20.5444ZM10.5988 28.1341H8.26351V30.4694C8.26351 30.7923 8.00196 31.0532 7.67969 31.0532C7.35742 31.0532 7.09587 30.7923 7.09587 30.4694V28.1341H4.76058C4.43831 28.1341 4.17676 27.8731 4.17676 27.5503C4.17676 27.2274 4.43831 26.9665 4.76058 26.9665H7.09587V24.6312C7.09587 24.3083 7.35742 24.0474 7.67969 24.0474C8.00196 24.0474 8.26351 24.3083 8.26351 24.6312V26.9665H10.5988C10.9211 26.9665 11.1826 27.2274 11.1826 27.5503C11.1826 27.8731 10.9211 28.1341 10.5988 28.1341Z" fill="#6B69B2"/>
<path d="M12.4962 22.4648C13.4028 23.3239 14.0788 24.4222 14.4249 25.6592C14.3644 25.7421 14.2994 25.8287 14.2247 25.916C13.7157 26.6171 11.7337 29.3056 11.2872 29.8145C10.7784 30.3881 10.0197 31.4028 9.00208 30.6396C8.11169 29.9389 8.49331 29.0415 9.00208 28.2783C9.03183 28.235 9.06491 28.1868 9.10071 28.1348L10.5988 28.1341L10.7169 28.123C10.9445 28.0764 11.1241 27.8967 11.171 27.6689L11.1826 27.5503C11.1826 27.2274 10.9211 26.9665 10.5988 26.9665L9.90735 26.9668C10.8819 25.5548 12.1588 23.7047 12.17 23.6885L12.4962 22.4648Z" fill="#6B69B2"/>
<path d="M32.755 13.7227C33.4559 13.7227 33.8252 13.9581 34.2716 15.1055C34.7779 16.2447 35.6651 18.8614 35.674 18.8877C35.6813 18.8915 38.0319 20.0983 38.4777 20.29C38.8591 20.4822 39.2353 21.0528 38.9191 21.499C38.6646 21.9455 38.0256 21.8687 37.5167 21.6143C36.9427 21.3596 35.422 20.5974 35.0402 20.4053C34.7209 20.2133 34.5912 20.1549 34.464 19.9629C34.2095 19.581 33.6964 18.5996 33.6964 18.5996L33.005 21.2305C33.0138 21.2447 37.3852 28.2947 37.7667 28.9307C38.1484 29.5043 38.2104 30.3352 37.5743 30.7168C36.8113 31.1628 36.2856 30.7642 35.712 30.0635C35.3493 29.5661 33.4106 26.5521 31.9874 24.3418C31.721 24.9395 31.1417 26.1685 31.0841 26.3389C30.957 26.5932 30.8393 26.9027 30.5851 27.2217C30.1386 27.7306 28.6768 29.7395 28.3575 30.1211C27.9759 30.5027 27.407 31.2709 26.7062 30.6973C26.0703 30.1884 26.3246 29.5619 26.7062 28.9883C27.214 28.2265 29.0419 25.5806 29.049 25.5703L30.1632 21.4609C29.928 21.0145 29.7455 20.5077 29.8751 19.9053C29.938 19.3946 30.8421 15.623 31.1613 14.2217C31.1638 14.2119 31.2955 13.7227 31.7374 13.7227H32.755Z" fill="#6B69B2"/>
<path d="M17.3361 6.94434C18.2911 6.94443 18.7928 7.3241 19.4288 8.78809C20.1257 10.3705 21.3919 13.5516 21.4064 13.5879C21.4064 13.5879 23.9622 15.1193 24.5363 15.374C25.0451 15.566 25.4869 16.344 25.17 17.0449C24.7883 17.683 23.8933 17.5555 23.1925 17.2363C22.4293 16.8547 21.0325 16.0771 20.5236 15.7578C20.0147 15.5034 19.8894 15.3785 19.6974 15.124C19.3804 14.5544 18.6899 13.2428 18.6798 13.2236L17.5851 17.793C17.5851 17.793 23.45 27.2939 23.9601 28.124C24.4689 28.9521 24.6015 30.0927 23.7111 30.6016C22.6287 31.1727 21.9205 30.719 21.1573 29.6992C20.6005 28.9575 17.8755 24.7374 15.9913 21.8066C15.8758 22.1279 15.6961 22.6234 15.5167 23.1162C14.8993 22.0274 14.0639 21.0787 13.0665 20.333L13.6486 18.1582C13.3198 17.5678 13.092 16.8693 13.2648 16.0078C13.392 15.2445 14.662 9.5537 15.1085 7.57812C15.1085 7.57812 15.2978 6.9445 15.9337 6.94434H17.3361Z" fill="#6B69B2"/>
<path d="M28.7804 13.0117C28.9892 13.0117 29.2219 13.0436 29.4523 13.1084C30.0427 13.286 30.2664 13.355 30.2784 13.3574C30.4678 13.4198 30.6473 13.5091 30.796 13.6074C30.6881 13.7562 30.6063 13.9076 30.5656 14.0684C30.4791 14.4524 30.36 15.0045 30.2208 15.6045C29.7289 17.7184 29.342 19.3621 29.2794 19.79C29.1906 20.2293 29.2077 20.6238 29.299 20.9814C29.1021 21.0487 28.919 21.0771 28.799 21.0771C28.6239 21.0771 28.4537 21.0504 28.2618 21C28.1683 20.976 28.034 20.9375 27.8781 20.8848C27.6524 20.808 27.3687 20.7053 27.0519 20.6357C26.3489 20.4438 26.0299 20.0571 25.881 19.7715C25.6434 19.3178 25.631 18.7535 25.8615 18.1006C25.9959 17.6973 26.1979 17.0369 26.3995 16.3721C26.6538 15.5324 26.8907 14.7429 27.0323 14.3564C27.4956 13.2427 28.2379 13.0117 28.7804 13.0117Z" fill="#6B69B2"/>
<path d="M12.2277 6.17578C12.3261 6.18058 12.4345 6.2094 12.5353 6.2334L14.6476 6.84863C14.6978 6.86065 14.7312 6.88946 14.7814 6.90625C14.6424 7.08372 14.5536 7.26619 14.5128 7.40527V7.44336C14.064 9.43078 12.7825 15.1248 12.6505 15.9121C12.569 16.3152 12.583 16.6994 12.631 17.0449C12.5446 17.0401 12.4464 17.025 12.3624 17.0059L9.71204 16.3916C9.28736 16.3075 8.91761 16.0409 8.69446 15.6426C8.44258 15.1938 8.40677 14.632 8.59875 14.1064L10.6154 7.38574C10.8674 6.6275 11.5318 6.14713 12.2277 6.17578Z" fill="#6B69B2"/>
<path d="M33.3116 7.57812C34.8381 7.57812 36.0771 8.81631 36.0773 10.3428C36.0773 11.8693 34.8382 13.1084 33.3116 13.1084C31.7852 13.1083 30.547 11.8693 30.547 10.3428C30.5471 8.8164 31.7853 7.57827 33.3116 7.57812Z" fill="#6B69B2"/>
<path d="M18.3536 0.18457C20.0505 0.184683 21.4259 1.56089 21.4259 3.25781C21.4257 4.95455 20.0504 6.32997 18.3536 6.33008C16.6568 6.33008 15.2816 4.95462 15.2814 3.25781C15.2814 1.56082 16.6566 0.18457 18.3536 0.18457Z" fill="#6B69B2"/>
</svg>
