<svg width="40" height="31" viewBox="0 0 40 31" fill="none" xmlns="http://www.w3.org/2000/svg">
<path d="M7.67969 16.8442C3.8107 16.8442 0.673828 19.9811 0.673828 23.8501C0.673828 27.7191 3.8107 30.856 7.67969 30.856C11.5487 30.856 14.6855 27.7191 14.6855 23.8501C14.6855 19.9811 11.5487 16.8442 7.67969 16.8442ZM10.5988 24.4339H8.26351V26.7692C8.26351 27.0921 8.00196 27.353 7.67969 27.353C7.35742 27.353 7.09587 27.0921 7.09587 26.7692V24.4339H4.76058C4.43831 24.4339 4.17676 24.173 4.17676 23.8501C4.17676 23.5272 4.43831 23.2663 4.76058 23.2663H7.09587V20.931C7.09587 20.6081 7.35742 20.3472 7.67969 20.3472C8.00196 20.3472 8.26351 20.6081 8.26351 20.931V23.2663H10.5988C10.9211 23.2663 11.1826 23.5272 11.1826 23.8501C11.1826 24.173 10.9211 24.4339 10.5988 24.4339Z" fill="#6B69B2"/>
<path d="M10.8192 28.0049C10.8214 28.1606 10.7923 28.3154 10.7343 28.46C10.6762 28.6043 10.5905 28.7359 10.4813 28.8467C10.3719 28.9576 10.2413 29.0463 10.0975 29.1064C9.9538 29.1666 9.79923 29.1973 9.64343 29.1973C9.48769 29.1972 9.33301 29.1666 9.18933 29.1064C9.04571 29.0463 8.91584 28.9576 8.80652 28.8467C8.69717 28.7358 8.6107 28.6045 8.55261 28.46C8.49453 28.3154 8.46547 28.1606 8.46765 28.0049V24.4346L10.5988 24.4339L10.7167 24.4229C10.7523 24.4156 10.7863 24.4031 10.8192 24.3896V28.0049Z" fill="#6B69B2"/>
<path d="M15.4374 28.46C15.3793 28.6043 15.2936 28.7359 15.1844 28.8467C15.1747 28.8566 15.1633 28.8655 15.1532 28.875C15.2646 28.7097 15.3682 28.5391 15.4686 28.3662C15.459 28.3976 15.4497 28.4294 15.4374 28.46Z" fill="#6B69B2"/>
<path d="M8.46765 16.8887C11.9657 17.2803 14.6855 20.2475 14.6855 23.8501L14.6766 24.2109C14.6007 25.7079 14.0538 27.0801 13.1825 28.1846C13.1742 28.1252 13.1699 28.0651 13.1708 28.0049V20.5586H10.8192V23.3086C10.7512 23.2809 10.6767 23.2663 10.5988 23.2663L8.46765 23.2666V16.8887Z" fill="#6B69B2"/>
<path d="M36.2938 0.961914C36.9427 0.961914 37.4694 1.48811 37.4696 2.1377V18.207H37.8622C38.511 18.2073 39.038 18.7332 39.038 19.3828C39.0378 20.0323 38.5109 20.5584 37.8622 20.5586H17.0897V13.8379L18.2997 14.1836C18.8834 14.3481 19.507 14.315 20.0673 14.0918L23.9872 12.5244C24.6674 12.2517 25.2016 11.7316 25.4901 11.0576C25.7786 10.3835 25.7865 9.6374 25.5145 8.95703C25.2425 8.27666 24.723 7.74158 24.0497 7.45312C23.3764 7.16552 22.6294 7.15753 21.9491 7.42871L18.9012 8.64941L15.4432 7.66016C16.4495 6.79716 17.0897 5.5194 17.0897 4.09766C17.0897 2.9008 16.6326 1.80897 15.8895 0.976562C15.8872 0.973427 15.8888 0.965049 15.8856 0.961914H36.2938Z" fill="#6B69B2"/>
<path d="M13.5399 8.78809C13.6574 8.79007 13.7739 8.81014 13.8856 8.84668L18.9872 10.3027L22.5321 8.88477C22.6661 8.82883 22.8098 8.79869 22.955 8.79492C23.2321 8.78807 23.5032 8.87943 23.7196 9.05273C23.9358 9.22602 24.0838 9.47041 24.1376 9.74219C24.1913 10.014 24.1475 10.2965 24.0135 10.5391C23.8795 10.7816 23.6639 10.9691 23.4052 11.0684L19.4862 12.6357C19.2443 12.7322 18.9768 12.7455 18.7264 12.6738L15.5223 11.7588V19.4248C14.0983 16.9066 11.4987 15.1427 8.46765 14.8799V11.1523C8.46765 9.85359 9.52048 8.80088 10.8192 8.80078H13.1708C13.2111 8.80078 13.2491 8.81147 13.2889 8.81348C13.3715 8.79634 13.4556 8.78722 13.5399 8.78809Z" fill="#6B69B2"/>
<path d="M12.3866 0.961914C13.2181 0.961914 14.0164 1.29287 14.6044 1.88086C15.1922 2.46881 15.5223 3.26624 15.5223 4.09766C15.5223 4.92906 15.1922 5.72649 14.6044 6.31445C14.0164 6.90244 13.2181 7.2334 12.3866 7.2334C11.5552 7.23327 10.7577 6.90233 10.1698 6.31445C9.58198 5.72649 9.25183 4.92907 9.25183 4.09766C9.25185 3.26623 9.58195 2.46881 10.1698 1.88086C10.7577 1.29298 11.5552 0.962038 12.3866 0.961914Z" fill="#6B69B2"/>
</svg>
