<svg width="50" height="15" viewBox="0 0 50 15" fill="none" xmlns="http://www.w3.org/2000/svg">
<path d="M17.6003 8.97437H16.1387V7.99995H20.0888V8.74455C20.0888 8.87147 19.9859 8.97437 19.859 8.97437H18.6197V13.4717H17.8301C17.7032 13.4717 17.6003 13.3688 17.6003 13.2419V8.97437Z" fill="white"/>
<path d="M30.1328 7.99995H31.1447L32.8012 10.3011L34.5252 7.99995H35.2623C35.3892 7.99995 35.4921 8.10284 35.4921 8.22977V13.4717H34.4727V9.63397L32.7937 11.8976L31.1522 9.67145V13.4717H30.3626C30.2357 13.4717 30.1328 13.3688 30.1328 13.2419V7.99995Z" fill="white"/>
<path d="M20.7134 7.99995H23.7292C23.8561 7.99995 23.959 8.10284 23.959 8.22977V8.97437H21.7328V10.2336H23.959V11.208H21.7328V12.4973H23.959V13.4717H20.9433C20.8163 13.4717 20.7134 13.3688 20.7134 13.2419V7.99995Z" fill="white"/>
<path d="M26.4781 8.15266C26.5107 8.0611 26.5974 7.99995 26.6946 7.99995H27.5593L29.5082 13.4717H28.6075C28.5095 13.4717 28.4223 13.4096 28.3903 13.317L28.1065 12.4973H25.9853L25.648 13.4717H24.5836L26.4781 8.15266ZM26.3301 11.5228H27.7692L27.0497 9.44659L26.3301 11.5228Z" fill="white"/>
<path d="M46.6619 4.68582L45.5971 6.45584C45.5555 6.52494 45.4808 6.56719 45.4001 6.56719H44.3833L46.0548 3.80134L44.4207 1.09546H45.5601L46.6619 2.91687L47.6967 1.20633C47.7383 1.13751 47.8129 1.09546 47.8933 1.09546H48.9105L47.2615 3.80134L48.9405 6.56719H47.8012L46.6619 4.68582Z" fill="white"/>
<path d="M36.9477 1.09546H38.102L40.4706 4.82074V1.09546H41.2601C41.3871 1.09546 41.49 1.19836 41.49 1.32529V6.56719H40.4031L37.9671 2.72199V6.56719H37.1775C37.0506 6.56719 36.9477 6.4643 36.9477 6.33737V1.09546Z" fill="white"/>
<path d="M42.531 1.09546H43.3206C43.4475 1.09546 43.5504 1.19836 43.5504 1.32529V6.56719H42.7608C42.6339 6.56719 42.531 6.4643 42.531 6.33737V1.09546Z" fill="white"/>
<path d="M33.2929 1.24818C33.3255 1.15661 33.4122 1.09546 33.5094 1.09546H34.3742L36.323 6.56719H35.4223C35.3244 6.56719 35.2372 6.50511 35.2051 6.41255L34.9214 5.59278H32.8001L32.4629 6.56719H31.3985L33.2929 1.24818ZM33.1449 4.61836H34.5841L33.8645 2.5421L33.1449 4.61836Z" fill="white"/>
<path d="M28.9175 6.64215C28.4977 6.64215 28.1129 6.56969 27.7632 6.42478C27.4184 6.27487 27.1235 6.07499 26.8787 5.82514C26.6338 5.57029 26.4439 5.27297 26.309 4.93317C26.1741 4.58838 26.1066 4.2211 26.1066 3.83133C26.1066 3.42157 26.1791 3.0468 26.324 2.707C26.4689 2.36221 26.6663 2.06488 26.9162 1.81503C27.171 1.56518 27.4683 1.3703 27.8081 1.23038C28.1529 1.09047 28.5227 1.02051 28.9175 1.02051C29.1723 1.02051 29.4172 1.05299 29.652 1.11795C29.8919 1.18291 30.1143 1.27535 30.3191 1.39528C30.529 1.51021 30.7164 1.65263 30.8813 1.82253C31.0512 1.98743 31.1961 2.17232 31.316 2.3772L30.6291 2.81592C30.5178 2.887 30.3707 2.84892 30.294 2.74142C30.1586 2.55166 29.9996 2.39528 29.8169 2.27226C29.5721 2.10736 29.2723 2.02491 28.9175 2.02491C28.6576 2.02491 28.4178 2.07238 28.1979 2.16732C27.978 2.25727 27.7881 2.38469 27.6282 2.54959C27.4683 2.7095 27.3434 2.89938 27.2535 3.11925C27.1635 3.33912 27.1185 3.57648 27.1185 3.83133C27.1185 4.08118 27.1635 4.31604 27.2535 4.53591C27.3434 4.75078 27.4658 4.94066 27.6207 5.10557C27.7806 5.26547 27.968 5.39289 28.1829 5.48784C28.4028 5.57778 28.6401 5.62276 28.895 5.62276C29.2748 5.62276 29.5946 5.52781 29.8544 5.33793C30.0555 5.18998 30.222 5.0118 30.3539 4.80338C30.4234 4.69366 30.5643 4.64581 30.6793 4.70611L31.3985 5.08308C31.2786 5.31294 31.1311 5.52531 30.9563 5.7202C30.7864 5.91009 30.594 6.07499 30.3791 6.2149C30.1692 6.34982 29.9394 6.45476 29.6895 6.52972C29.4447 6.60467 29.1873 6.64215 28.9175 6.64215Z" fill="white"/>
<path d="M21.7474 6.56719V1.32529C21.7474 1.19836 21.8503 1.09546 21.9772 1.09546H23.5013C23.8261 1.09546 24.1134 1.14293 24.3633 1.23788C24.6181 1.32782 24.833 1.45775 25.0079 1.62764C25.1828 1.79255 25.3152 1.99243 25.4052 2.22729C25.5001 2.45715 25.5476 2.71449 25.5476 2.99932C25.5476 3.32913 25.4676 3.63894 25.3077 3.92877C25.1528 4.2136 24.9255 4.43597 24.6256 4.59587L25.72 6.56719H24.5582L23.6812 4.89569H22.7667V6.33737C22.7667 6.4643 22.6639 6.56719 22.5369 6.56719H21.7474ZM23.4114 3.95875C23.6212 3.95875 23.7961 3.93377 23.9361 3.8838C24.081 3.82883 24.1959 3.75637 24.2808 3.66642C24.3708 3.57148 24.4333 3.46405 24.4682 3.34412C24.5082 3.22419 24.5282 3.09677 24.5282 2.96185C24.5282 2.68201 24.4382 2.45965 24.2584 2.29475C24.0835 2.12984 23.8011 2.04739 23.4114 2.04739H22.7667V3.95875H23.4114Z" fill="white"/>
<path d="M18.0331 1.24818C18.0657 1.15661 18.1524 1.09546 18.2496 1.09546H19.1144L21.0632 6.56719H20.1625C20.0646 6.56719 19.9774 6.50511 19.9453 6.41255L19.6616 5.59278H17.5403L17.203 6.56719H16.1387L18.0331 1.24818ZM17.8851 4.61836H19.3243L18.6047 2.5421L17.8851 4.61836Z" fill="white"/>
<path d="M49.1453 1.12912V1.08886H49.4264V1.12912H49.3085V1.46362H49.2632V1.12912H49.1453Z" fill="white"/>
<path d="M49.4964 1.08886H49.5506L49.6779 1.39994H49.6823L49.8097 1.08886H49.8638V1.46362H49.8214V1.17889H49.8177L49.7006 1.46362H49.6596L49.5425 1.17889H49.5389V1.46362H49.4964V1.08886Z" fill="white"/>
<path d="M10.1627 8.09682C10.1424 8.12123 9.95621 8.38847 9.66093 8.81705C9.60647 8.89612 9.37606 9.22821 9.14902 9.55502C8.92194 9.88178 8.73614 10.1584 8.73614 10.1696C8.73614 10.1808 8.81024 10.2974 8.90089 10.4286C8.99149 10.5598 9.12202 10.7491 9.19092 10.8494C9.25981 10.9495 9.39751 11.1479 9.49694 11.2903C9.59638 11.4327 9.71943 11.6095 9.77041 11.6833C11.1382 13.6627 11.0716 13.5797 11.388 13.6982L11.5112 13.7444H12.8214C14.0945 13.7444 14.1311 13.7434 14.1124 13.7086C14.1019 13.6889 14.017 13.5642 13.9239 13.4313C13.8308 13.2985 13.707 13.1201 13.6487 13.0349C13.5904 12.9496 13.5037 12.8245 13.4561 12.7568C13.4084 12.6891 13.3319 12.5795 13.2861 12.5132C13.2402 12.4469 12.7328 11.7155 12.1585 10.8877C11.5842 10.0599 11.0458 9.28341 10.9621 9.16215C10.8784 9.04089 10.7736 8.88989 10.7293 8.82665C10.5685 8.59693 10.4073 8.3633 10.3097 8.21828C10.2025 8.05915 10.1976 8.05508 10.1627 8.09682Z" fill="white"/>
<path d="M10.4641 7.65734L10.3522 7.82054L11.1769 9.00974C11.6304 9.66377 12.0508 10.2698 12.1112 10.3564C12.1714 10.443 12.2581 10.568 12.3038 10.6343C12.3495 10.7005 12.4259 10.8101 12.4735 10.8777C12.5212 10.9454 12.7033 11.2083 12.8781 11.4621C13.0529 11.7158 13.2838 12.0487 13.3911 12.2017C13.4985 12.3547 13.6528 12.5768 13.7341 12.6951C13.8153 12.8135 13.9717 13.0398 14.0818 13.198C14.487 13.7807 14.6312 13.9919 14.6312 14.0028C14.6312 14.0089 13.9139 14.0114 13.0371 14.0084L11.4429 14.0029L11.3178 13.9566C10.9397 13.8166 10.8889 13.7636 10.258 12.8501C10.1362 12.6736 9.96111 12.4209 9.86894 12.2885C9.77677 12.156 9.64508 11.9657 9.57624 11.8655C9.4235 11.6432 8.99528 11.0264 8.75421 10.6816C8.63724 10.5143 8.59415 10.4431 8.55576 10.4455C8.52532 10.4475 8.49785 10.4957 8.43885 10.5791C8.38497 10.6551 8.35111 10.6923 8.34616 10.733C8.33885 10.7932 8.39465 10.861 8.54222 11.0734C8.65806 11.2402 8.79893 11.4439 8.85526 11.526C8.91159 11.6082 8.99669 11.7309 9.04434 11.7986C9.09204 11.8664 9.1684 11.976 9.21408 12.0422C9.25971 12.1085 9.37676 12.2768 9.47413 12.4164C9.65104 12.6698 10.1934 13.452 10.3511 13.6811C10.5857 14.0218 10.9072 14.2548 11.2915 14.3626C11.4676 14.4119 15.3826 14.4435 15.3826 14.3956C15.3826 14.3838 15.2076 14.1224 14.9938 13.8148C14.5723 13.2086 14.3977 12.9567 14.234 12.7187C14.0447 12.4434 13.818 12.1172 13.5345 11.7121C13.4792 11.633 13.3778 11.4864 13.3092 11.3862C13.2406 11.286 13.096 11.0771 12.988 10.9219C12.6717 10.468 12.6565 10.4462 12.2254 9.82386C11.999 9.4968 11.6608 9.00924 11.4742 8.74035C11.0328 8.10466 10.9252 7.94909 10.7552 7.70049C10.6661 7.57018 10.6285 7.5092 10.5925 7.51021C10.5603 7.51111 10.5295 7.56192 10.4641 7.65734Z" fill="white"/>
<path fill-rule="evenodd" clip-rule="evenodd" d="M1.72934 1.2534C1.4374 0.831601 1.13405 0.393524 1.05531 0.279899L0.912109 0.0732422L2.9217 0.078567L4.93128 0.0838916L5.08932 0.137138C5.50916 0.278693 5.72191 0.45099 6.03899 0.906146C6.13969 1.05066 6.30005 1.28043 6.39544 1.41676C6.49079 1.55309 6.61798 1.73604 6.67805 1.82329C6.84668 2.06822 7.06519 2.38238 7.32836 2.75847C7.38373 2.83753 7.48508 2.98421 7.55363 3.08443C7.62217 3.18459 7.7472 3.36563 7.83149 3.48669C7.91583 3.6078 7.98478 3.7165 7.98478 3.72825C7.98478 3.74006 7.81756 3.99042 7.61319 4.28463C7.40882 4.57879 7.18188 4.9058 7.10885 5.01124C7.03586 5.11673 6.85047 5.38417 6.69688 5.60559C6.31378 6.1579 6.27592 6.2125 6.13197 6.42046C6.06261 6.52063 5.96035 6.6673 5.90473 6.74637C5.84906 6.82549 5.78935 6.91385 5.77198 6.94278C5.75462 6.97171 5.73176 6.99537 5.72116 6.99537C5.71056 6.99537 5.68759 6.97171 5.67013 6.94278C5.65271 6.91385 5.5719 6.7953 5.49064 6.67926C5.40938 6.56327 5.28662 6.3864 5.21793 6.28624C5.14923 6.18608 5.04752 6.0394 4.99195 5.96028C4.93638 5.88122 4.81474 5.70591 4.72166 5.57068C4.62859 5.43551 4.4973 5.24568 4.43002 5.14888C4.12596 4.71166 3.95248 4.4615 3.64989 4.02387C3.47126 3.76553 3.24872 3.44414 3.15534 3.30972C3.06191 3.17535 2.89722 2.93805 2.78925 2.78248C2.68134 2.62691 2.51815 2.39177 2.42659 2.25996C2.33508 2.12815 2.02133 1.6752 1.72934 1.2534Z" fill="white"/>
<path fill-rule="evenodd" clip-rule="evenodd" d="M11.396 0.0951436C11.1591 0.141408 10.87 0.276734 10.6915 0.42492C10.5172 0.56969 10.4699 0.628612 10.1041 1.15756C10.0604 1.2208 9.9449 1.38697 9.84754 1.52677C9.75017 1.66657 9.59244 1.89336 9.49709 2.03075C9.40175 2.16814 9.23549 2.40749 9.12767 2.56266C8.80393 3.02857 8.78621 3.05409 8.3864 3.6308C8.17441 3.93662 7.96232 4.24294 7.91508 4.31145C7.81983 4.44969 7.56075 4.82347 7.2527 5.26708C7.14145 5.42727 6.93547 5.72429 6.7949 5.92708C6.65438 6.12992 6.49129 6.36486 6.43249 6.4492C6.18532 6.80399 5.15534 8.28876 5.00937 8.50069C4.92225 8.62722 4.8056 8.79545 4.75023 8.87457C4.69486 8.95363 4.55257 9.15893 4.43401 9.33073C4.31544 9.50253 4.14045 9.75479 4.0451 9.89132C3.94971 10.0279 3.79546 10.2497 3.70223 10.3842C2.9216 11.5112 2.12148 12.6651 1.79465 13.1352C1.7066 13.2619 1.57966 13.4447 1.4841 13.5823L1.42503 13.6673C1.32968 13.8047 1.18043 14.0184 1.09341 14.1423C1.00634 14.2662 0.934823 14.3783 0.93447 14.3915C0.933561 14.4235 4.60789 14.4265 4.83801 14.3947C5.36824 14.3213 5.67033 14.1046 6.09598 13.4925C6.67194 12.6643 6.77042 12.5224 7.16578 11.9518C7.39226 11.6249 7.6678 11.228 7.77809 11.0698C7.88832 10.9116 8.05555 10.6701 8.14963 10.533C8.24371 10.3959 8.44384 10.1069 8.59441 9.89072C8.74497 9.67452 8.92295 9.41748 8.98998 9.31953C9.05696 9.22152 9.13348 9.11212 9.15998 9.0763C9.18642 9.04054 9.28439 8.90069 9.37757 8.76556C9.56074 8.49999 10.651 6.92655 10.9228 6.5355C11.0145 6.40369 11.194 6.14484 11.3219 5.96028C11.4497 5.77578 11.6171 5.53421 11.6938 5.42345C11.7706 5.31274 11.8842 5.14823 11.9463 5.05786C12.0085 4.96749 12.1314 4.79062 12.2194 4.66484C12.393 4.41669 13.2834 3.13345 13.5271 2.77997C13.6099 2.65996 13.734 2.48098 13.8028 2.38223C13.8717 2.28342 14.0044 2.09259 14.0977 1.95806L14.2208 1.78078C14.3225 1.63435 14.4521 1.44773 14.5604 1.29178C14.9418 0.74264 15.074 0.552058 15.2554 0.289995L15.4047 0.0742971L13.443 0.0764068C12.3641 0.0775622 11.443 0.0860013 11.396 0.0951436ZM13.6105 1.96279C14.2165 1.09512 14.6312 0.490674 14.6312 0.475152C14.6312 0.443405 11.6199 0.456164 11.4621 0.488564C11.1348 0.555775 10.8669 0.749321 10.6373 1.08452C10.5663 1.18795 10.4498 1.35638 10.3784 1.4588C10.3069 1.56123 10.199 1.71655 10.1386 1.80395C10.0782 1.8913 9.82528 2.25614 9.57659 2.61465C9.32795 2.97321 9.07972 3.33127 9.02496 3.41033C8.87888 3.62131 8.44031 4.25283 7.93309 4.98251C7.7682 5.21976 7.55292 5.53034 7.45475 5.6727C7.35658 5.81506 7.05484 6.25078 6.78415 6.64093C6.5135 7.03109 6.25462 7.40452 6.20889 7.47077C6.16316 7.53703 6.08669 7.64659 6.03899 7.7142C5.99135 7.78181 5.8266 8.01901 5.673 8.24129C5.51936 8.46352 5.28692 8.79832 5.15645 8.98523C5.02602 9.1722 4.85436 9.42004 4.77496 9.53603C4.69562 9.65202 4.54934 9.86339 4.44996 10.0058C4.35052 10.1481 4.21283 10.3465 4.14398 10.4467C4.07509 10.5469 3.97358 10.6936 3.91841 10.7727C3.86324 10.8517 3.76139 10.9984 3.69204 11.0986C3.52239 11.3436 3.33877 11.6081 2.79329 12.3927C2.1452 13.325 1.68512 13.9934 1.68512 14.0025C1.68512 14.0088 2.40252 14.0115 3.27931 14.0085L4.87349 14.0031L4.99332 13.9598C5.34815 13.8315 5.45278 13.726 5.97741 12.9679C6.43512 12.3065 6.50164 12.2105 6.67477 11.9614C6.73705 11.8717 6.82387 11.7466 6.86768 11.6834C6.91154 11.6201 7.11359 11.329 7.3168 11.0365C8.00043 10.0524 8.1783 9.79588 8.62974 9.14296C8.7209 9.01115 8.87686 8.78686 8.97635 8.6445C9.07584 8.50215 9.22231 8.29077 9.30176 8.17473C9.38126 8.05874 9.50027 7.8862 9.56629 7.79131C9.63226 7.69642 9.80928 7.44189 9.95964 7.22569C10.1101 7.00954 10.2897 6.75069 10.359 6.65053C10.4775 6.47908 11.9345 4.37791 12.1072 4.12931C12.309 3.83887 12.4463 3.64085 12.9048 2.97894C13.1751 2.58878 13.4926 2.13152 13.6105 1.96279Z" fill="white"/>
</svg>
