<svg width="831" height="880" viewBox="0 0 831 880" fill="none" xmlns="http://www.w3.org/2000/svg">
<path d="M461.312 565.504C459.878 567.224 446.759 586.054 425.953 616.253C422.116 621.824 405.881 645.223 389.884 668.25C373.883 691.274 360.792 710.762 360.792 711.555C360.792 712.344 366.013 720.556 372.4 729.804C378.784 739.049 387.981 752.389 392.836 759.45C397.69 766.508 407.392 780.489 414.398 790.519C421.405 800.55 430.075 813.012 433.667 818.212C530.041 957.683 525.349 951.835 547.641 960.185L556.323 963.438H648.645C738.346 963.438 740.928 963.367 739.609 960.918C738.865 959.53 732.887 950.738 726.329 941.377C719.767 932.018 711.04 919.446 706.936 913.443C702.828 907.437 696.721 898.62 693.36 893.849C690 889.078 684.612 881.355 681.382 876.687C678.153 872.018 642.4 820.477 601.934 762.151C561.469 703.825 523.536 649.112 517.635 640.568C511.735 632.024 504.356 621.385 501.233 616.928C489.902 600.743 478.546 584.281 471.665 574.063C464.114 562.85 463.766 562.563 461.312 565.504Z" fill="#BFBAD5"/>
<path d="M482.544 534.538L474.663 546.037L532.768 629.83C564.727 675.913 594.349 718.612 598.599 724.714C602.845 730.816 608.951 739.626 612.17 744.294C615.389 748.963 620.773 756.683 624.13 761.45C627.491 766.214 640.319 784.743 652.639 802.624C664.955 820.502 681.222 843.954 688.787 854.735C696.352 865.516 707.224 881.164 712.95 889.506C718.672 897.849 729.697 913.794 737.45 924.936C766.001 965.993 776.162 980.876 776.162 981.644C776.162 982.073 725.618 982.253 663.838 982.041L551.511 981.655L542.694 978.392C516.053 968.524 512.475 964.79 468.026 900.425C459.441 887.991 447.104 870.185 440.61 860.851C434.115 851.518 424.837 838.107 419.986 831.049C409.224 815.384 379.051 771.927 362.065 747.629C353.823 735.839 350.787 730.824 348.082 730.997C345.937 731.134 344.001 734.533 339.844 740.405C336.048 745.766 333.662 748.386 333.314 751.254C332.798 755.492 336.73 760.271 347.128 775.236C355.29 786.987 365.216 801.339 369.185 807.13C373.154 812.92 379.15 821.564 382.508 826.338C385.868 831.109 391.249 838.832 394.468 843.501C397.683 848.169 405.931 860.03 412.791 869.862C425.256 887.719 463.474 942.835 474.584 958.974C491.115 982.986 513.77 999.402 540.845 1006.99C553.25 1010.47 829.104 1012.7 829.104 1009.32C829.104 1008.49 816.773 990.072 801.708 968.4C772.015 925.686 759.706 907.932 748.176 891.163C734.84 871.767 718.864 848.782 698.887 820.24C694.989 814.669 687.844 804.334 683.011 797.276C678.178 790.215 667.992 775.498 660.378 764.565C638.093 732.583 637.026 731.043 606.65 687.193C590.692 664.148 566.868 629.794 553.716 610.848C522.615 566.056 515.036 555.095 503.058 537.578C496.778 528.397 494.126 524.1 491.595 524.171C489.324 524.235 487.151 527.815 482.544 534.538Z" fill="#BFBAD5"/>
<path fill-rule="evenodd" clip-rule="evenodd" d="M-132.913 83.3114C-153.484 53.5909 -174.858 22.7236 -180.406 14.7174L-190.496 0.15625L-48.8989 0.531438L92.6982 0.906613L103.833 4.65839C133.416 14.6325 148.407 26.7727 170.748 58.8434C177.844 69.0263 189.142 85.2156 195.864 94.8216C202.582 104.428 211.545 117.318 215.777 123.466C227.659 140.724 243.055 162.86 261.598 189.359C265.5 194.931 272.641 205.266 277.471 212.327C282.301 219.384 291.11 232.14 297.049 240.67C302.992 249.204 307.85 256.863 307.85 257.691C307.85 258.523 296.068 276.164 281.668 296.894C267.267 317.621 251.277 340.663 246.131 348.092C240.989 355.525 227.926 374.368 217.103 389.97C190.11 428.886 187.442 432.734 177.299 447.387C172.413 454.444 165.207 464.779 161.288 470.35C157.365 475.925 153.158 482.151 151.935 484.19C150.711 486.228 149.1 487.895 148.353 487.895C147.606 487.895 145.988 486.228 144.758 484.19C143.531 482.151 137.837 473.798 132.111 465.622C126.385 457.449 117.736 444.987 112.895 437.929C108.055 430.872 100.889 420.537 96.9731 414.962C93.0574 409.391 84.4863 397.039 77.9282 387.51C71.3701 377.986 62.1197 364.61 57.3789 357.79C35.9548 326.983 23.7312 309.356 2.4102 278.521C-10.1761 260.318 -25.8566 237.673 -32.4361 228.201C-39.0191 218.733 -50.6238 202.013 -58.2311 191.051C-65.8348 180.09 -77.3329 163.522 -83.7843 154.234C-90.2322 144.947 -112.339 113.032 -132.913 83.3114Z" fill="#BFBAD5"/>
<path fill-rule="evenodd" clip-rule="evenodd" d="M548.21 1.69944C531.513 4.95925 511.145 14.4945 498.569 24.9357C486.285 35.1363 482.956 39.2881 457.183 76.5582C454.099 81.0143 445.962 92.7227 439.102 102.573C432.241 112.423 421.127 128.404 414.409 138.084C407.691 147.764 395.976 164.63 388.379 175.563C365.568 208.391 364.32 210.189 336.149 250.825C321.212 272.373 306.268 293.956 302.939 298.784C296.228 308.525 277.972 334.861 256.267 366.118C248.429 377.405 233.915 398.334 224.01 412.623C214.109 426.915 202.618 443.469 198.475 449.411C181.059 474.41 108.485 579.028 98.2 593.961C92.0616 602.877 83.8426 614.73 79.9411 620.305C76.0397 625.876 66.0141 640.342 57.6599 652.447C49.3058 664.551 36.9755 682.326 30.2573 691.947C23.5356 701.567 12.6671 717.197 6.09825 726.675C-48.9061 806.086 -105.283 887.386 -128.311 920.515C-134.516 929.442 -143.46 942.319 -150.193 952.013L-154.355 958.005C-161.073 967.685 -171.59 982.745 -177.721 991.473C-183.856 1000.2 -188.896 1008.11 -188.921 1009.03C-188.985 1011.29 69.912 1011.5 86.1259 1009.26C123.487 1004.08 144.772 988.819 174.764 945.688C215.346 887.33 222.285 877.334 250.143 837.126C266.101 814.095 285.516 786.13 293.286 774.985C301.054 763.839 312.836 746.818 319.466 737.159C326.095 727.5 340.196 707.134 350.805 691.904C361.414 676.67 373.954 658.559 378.677 651.657C383.397 644.752 388.788 637.043 390.655 634.519C392.519 631.999 399.422 622.146 405.987 612.625C418.894 593.912 495.714 483.046 514.869 455.492C521.324 446.205 533.977 427.966 542.986 414.962C551.995 401.962 563.788 384.941 569.194 377.136C574.599 369.335 582.605 357.744 586.983 351.376C591.365 345.009 600.021 332.547 606.224 323.684C618.458 306.199 681.194 215.781 698.368 190.874C704.201 182.419 712.943 169.808 717.794 162.849C722.648 155.887 731.998 142.441 738.574 132.962L747.247 120.471C754.411 110.153 763.541 97.0039 771.172 86.0155C798.045 47.3226 807.363 33.894 820.145 15.4289L830.665 0.230577L692.443 0.379232C616.423 0.460639 551.518 1.05527 548.21 1.69944ZM704.243 133.295C746.942 72.1587 776.162 29.5688 776.162 28.4752C776.162 26.2382 563.983 27.1373 552.866 29.4202C529.806 34.1559 510.928 47.7933 494.746 71.4118C489.749 78.6995 481.541 90.5672 476.505 97.7841C471.469 105.001 463.865 115.945 459.608 122.103C455.351 128.258 437.533 153.965 420.01 179.226C402.491 204.49 385.001 229.719 381.142 235.291C370.849 250.156 339.947 294.654 304.208 346.067C292.589 362.784 277.421 384.668 270.504 394.699C263.586 404.73 242.326 435.431 223.253 462.921C204.183 490.412 185.942 516.724 182.719 521.392C179.497 526.061 174.109 533.78 170.748 538.544C167.391 543.309 155.783 560.022 144.961 575.684C134.135 591.342 117.757 614.932 108.564 628.102C99.3737 641.276 87.2782 658.74 81.6838 666.912C76.0931 675.085 65.7864 689.979 58.7838 700.009C51.7775 710.04 42.0755 724.021 37.2245 731.078C32.3699 738.139 25.2178 748.475 21.3306 754.046C17.4434 759.617 10.2664 769.952 5.37984 777.013C-6.57344 794.278 -19.5119 812.91 -57.9466 868.199C-103.612 933.887 -136.029 980.979 -136.029 981.623C-136.029 982.066 -85.4807 982.257 -23.7014 982.048L88.626 981.666L97.0691 978.611C122.071 969.572 129.444 962.142 166.41 908.725C198.66 862.122 203.347 855.358 215.546 837.802C219.934 831.488 226.051 822.671 229.138 818.215C232.229 813.756 246.466 793.248 260.784 772.638C308.953 703.294 321.486 685.222 353.295 639.216C359.718 629.929 370.707 614.125 377.717 604.095C384.727 594.064 395.048 579.17 400.646 570.994C406.247 562.821 414.633 550.663 419.285 543.978C423.933 537.292 436.406 519.357 447.001 504.124C457.599 488.893 470.26 470.655 475.139 463.597C483.49 451.517 586.147 303.467 598.317 285.95C612.54 265.485 622.213 251.533 654.52 204.894C673.565 177.403 695.939 145.184 704.243 133.295Z" fill="#BFBAD5"/>
</svg>
