<svg width="123" height="37" viewBox="0 0 123 37" fill="none" xmlns="http://www.w3.org/2000/svg">
<path d="M42.4347 22.9178H38.8252V20.5114H48.5802V22.3502C48.5802 22.6637 48.3261 22.9178 48.0127 22.9178H44.9522V34.0241H43.0023C42.6888 34.0241 42.4347 33.77 42.4347 33.4565V22.9178Z" fill="#6B69B2"/>
<path d="M73.3843 20.5114H75.8832L79.974 26.1941L84.2315 20.5114H86.0518C86.3652 20.5114 86.6193 20.7655 86.6193 21.079V34.0241H84.1019V24.5467L79.9555 30.1369L75.9017 24.6392V34.0241H73.9519C73.6384 34.0241 73.3843 33.77 73.3843 33.4565V20.5114Z" fill="#6B69B2"/>
<path d="M50.1227 20.5114H57.5702C57.8837 20.5114 58.1378 20.7655 58.1378 21.079V22.9178H52.6402V26.0275H58.1378V28.4339H52.6402V31.6177H58.1378V34.0241H50.6903C50.3768 34.0241 50.1227 33.77 50.1227 33.4565V20.5114Z" fill="#6B69B2"/>
<path d="M64.3588 20.8885C64.4393 20.6624 64.6534 20.5114 64.8934 20.5114H67.029L71.8417 34.0241H69.6174C69.3755 34.0241 69.1602 33.8707 69.0811 33.6422L68.3803 31.6177H63.1418L62.3088 34.0241H59.6803L64.3588 20.8885ZM63.9933 29.2113H67.5473L65.7703 24.0839L63.9933 29.2113Z" fill="#6B69B2"/>
<path d="M114.204 12.327L111.574 16.6982C111.471 16.8688 111.287 16.9732 111.088 16.9732H108.576L112.704 10.1428L108.669 3.4605H111.482L114.204 7.95853L116.759 3.73429C116.862 3.56433 117.046 3.4605 117.245 3.4605H119.757L115.684 10.1428L119.831 16.9732H117.017L114.204 12.327Z" fill="#6B69B2"/>
<path d="M90.2139 3.4605H93.0645L98.9138 12.6602V3.4605H100.864C101.177 3.4605 101.431 3.7146 101.431 4.02805V16.9732H98.7472L92.7313 7.47727V16.9732H90.7815C90.468 16.9732 90.2139 16.719 90.2139 16.4056V3.4605Z" fill="#6B69B2"/>
<path d="M104.002 3.4605H105.952C106.265 3.4605 106.52 3.7146 106.52 4.02805V16.9732H104.57C104.256 16.9732 104.002 16.7191 104.002 16.4056V3.4605Z" fill="#6B69B2"/>
<path d="M81.1883 3.83763C81.2689 3.6115 81.483 3.4605 81.723 3.4605H83.8586L88.6713 16.9732H86.447C86.2051 16.9732 85.9898 16.8198 85.9106 16.5913L85.2099 14.5668H79.9714L79.1384 16.9732H76.5099L81.1883 3.83763ZM80.8229 12.1604H84.3769L82.5999 7.03302L80.8229 12.1604Z" fill="#6B69B2"/>
<path d="M70.3829 17.1583C69.3464 17.1583 68.3962 16.9793 67.5323 16.6215C66.6808 16.2512 65.9528 15.7576 65.3481 15.1406C64.7434 14.5113 64.2745 13.777 63.9413 12.9379C63.6081 12.0864 63.4415 11.1794 63.4415 10.2168C63.4415 9.20492 63.6205 8.27939 63.9783 7.44025C64.3362 6.58877 64.8236 5.85452 65.4406 5.2375C66.07 4.62049 66.8043 4.13921 67.6434 3.79368C68.4949 3.44816 69.4081 3.27539 70.3829 3.27539C71.0123 3.27539 71.617 3.3556 72.197 3.51603C72.7893 3.67645 73.3385 3.90475 73.8444 4.20091C74.3627 4.48474 74.8255 4.83644 75.2327 5.25601C75.6523 5.66324 76.0101 6.11984 76.3063 6.62579L74.6099 7.70923C74.335 7.88477 73.9718 7.79072 73.7823 7.52525C73.448 7.05664 73.0553 6.67043 72.6042 6.36664C71.9995 5.95941 71.2591 5.7558 70.3829 5.7558C69.7412 5.7558 69.1489 5.87303 68.6059 6.1075C68.063 6.32962 67.594 6.6443 67.1991 7.05153C66.8042 7.44642 66.4957 7.91535 66.2736 8.45833C66.0515 9.0013 65.9404 9.58747 65.9404 10.2168C65.9404 10.8338 66.0515 11.4138 66.2736 11.9568C66.4957 12.4874 66.7981 12.9564 67.1806 13.3636C67.5755 13.7585 68.0383 14.0732 68.5689 14.3076C69.1119 14.5298 69.6981 14.6408 70.3274 14.6408C71.2653 14.6408 72.0551 14.4064 72.6968 13.9374C73.1933 13.5721 73.6044 13.1321 73.9303 12.6174C74.1018 12.3464 74.4499 12.2282 74.734 12.3771L76.5099 13.3081C76.2138 13.8757 75.8497 14.4002 75.4178 14.8815C74.9982 15.3504 74.5231 15.7576 73.9925 16.1032C73.4742 16.4364 72.9065 16.6955 72.2895 16.8806C71.6849 17.0657 71.0493 17.1583 70.3829 17.1583Z" fill="#6B69B2"/>
<path d="M52.6761 16.9732V4.02805C52.6761 3.7146 52.9302 3.4605 53.2436 3.4605H57.0075C57.8097 3.4605 58.5192 3.57773 59.1362 3.81219C59.7656 4.03432 60.2962 4.35517 60.7281 4.77474C61.16 5.18197 61.4871 5.67559 61.7092 6.25558C61.9437 6.82324 62.0609 7.45876 62.0609 8.16216C62.0609 8.97662 61.8634 9.74172 61.4686 10.4575C61.086 11.1609 60.5245 11.71 59.7841 12.1049L62.4866 16.9732H59.6175L57.4518 12.8453H55.1935V16.4056C55.1935 16.719 54.9394 16.9732 54.6259 16.9732H52.6761ZM56.7854 10.5315C57.3037 10.5315 57.7356 10.4698 58.0811 10.3464C58.439 10.2107 58.7228 10.0317 58.9326 9.80959C59.1547 9.57512 59.309 9.30981 59.3954 9.01364C59.4941 8.71747 59.5435 8.40279 59.5435 8.0696C59.5435 7.37855 59.3213 6.8294 58.8771 6.42217C58.4452 6.01494 57.7479 5.81132 56.7854 5.81132H55.1935V10.5315H56.7854Z" fill="#6B69B2"/>
<path d="M43.5036 3.83763C43.5841 3.6115 43.7982 3.4605 44.0383 3.4605H46.1739L50.9866 16.9732H48.7622C48.5203 16.9732 48.305 16.8198 48.2259 16.5913L47.5251 14.5668H42.2867L41.4537 16.9732H38.8252L43.5036 3.83763ZM43.1381 12.1604H46.6922L44.9151 7.03302L43.1381 12.1604Z" fill="#6B69B2"/>
<path d="M120.336 3.54361V3.4442H121.031V3.54361H120.74V4.36967H120.627V3.54361H120.336Z" fill="#6B69B2"/>
<path d="M121.203 3.4442H121.337L121.652 4.21241H121.663L121.977 3.4442H122.111V4.36967H122.006V3.66653H121.997L121.708 4.36967H121.607L121.317 3.66653H121.308V4.36967H121.203V3.4442Z" fill="#6B69B2"/>
<path d="M23 20.7618C22.9495 20.8224 22.487 21.4862 21.7536 22.5507C21.6183 22.7471 21.046 23.5719 20.4821 24.3836C19.9181 25.1952 19.4566 25.8822 19.4566 25.9102C19.4566 25.938 19.6406 26.2274 19.8658 26.5534C20.0908 26.8793 20.415 27.3496 20.5862 27.5985C20.7573 27.8473 21.0993 28.3401 21.3463 28.6937C21.5932 29.0473 21.8989 29.4866 22.0255 29.6699C25.4227 34.5863 25.2573 34.3802 26.0431 34.6745L26.3492 34.7891H29.6036C32.7656 34.7891 32.8566 34.7867 32.8101 34.7003C32.7839 34.6514 32.5731 34.3415 32.342 34.0115C32.1107 33.6816 31.803 33.2384 31.6583 33.0268C31.5135 32.8151 31.2983 32.5043 31.1798 32.3361C31.0613 32.1679 30.8714 31.8957 30.7576 31.7311C30.6437 31.5666 29.3834 29.7497 27.957 27.6937C26.5306 25.6377 25.1934 23.709 24.9854 23.4078C24.7774 23.1067 24.5173 22.7316 24.4072 22.5745C24.0078 22.004 23.6075 21.4237 23.3649 21.0635C23.0988 20.6682 23.0865 20.6581 23 20.7618Z" fill="#6B69B2"/>
<path d="M23.7484 19.6702L23.4706 20.0756L25.5189 23.0293C26.6454 24.6538 27.6896 26.1589 27.8394 26.374C27.9891 26.5891 28.2043 26.8997 28.3178 27.0642C28.4313 27.2288 28.6211 27.5009 28.7394 27.669C28.8579 27.8369 29.3101 28.4901 29.7444 29.1204C30.1785 29.7506 30.7519 30.5773 31.0186 30.9573C31.2852 31.3374 31.6685 31.889 31.8703 32.183C32.0721 32.4771 32.4607 33.0392 32.734 33.4319C33.7404 34.8792 34.0986 35.4039 34.0986 35.4309C34.0986 35.446 32.3169 35.4524 30.1391 35.4449L26.1795 35.4313L25.8688 35.3163C24.9296 34.9684 24.8035 34.8368 23.2367 32.5679C22.934 32.1296 22.4991 31.5019 22.2702 31.1729C22.0413 30.8439 21.7142 30.3712 21.5432 30.1224C21.1639 29.5702 20.1002 28.0383 19.5015 27.1818C19.211 26.7662 19.1039 26.5894 19.0086 26.5955C18.933 26.6003 18.8647 26.7201 18.7182 26.9271C18.5844 27.1161 18.5003 27.2085 18.488 27.3096C18.4698 27.459 18.6084 27.6274 18.9749 28.1549C19.2627 28.5692 19.6126 29.0751 19.7525 29.2792C19.8924 29.4833 20.1037 29.788 20.2221 29.9563C20.3406 30.1245 20.5302 30.3967 20.6437 30.5613C20.757 30.7259 21.0478 31.144 21.2896 31.4906C21.729 32.12 23.0762 34.0629 23.4678 34.6318C24.0506 35.4782 24.8491 36.0569 25.8036 36.3245C26.2408 36.447 35.9648 36.5255 35.9648 36.4065C35.9648 36.3772 35.5302 35.728 34.9991 34.9641C33.9524 33.4584 33.5185 32.8326 33.1121 32.2414C32.642 31.5577 32.0788 30.7475 31.3746 29.7413C31.2372 29.545 30.9854 29.1807 30.815 28.9319C30.6446 28.683 30.2856 28.1642 30.0172 27.7788C29.2316 26.6514 29.194 26.5971 28.1232 25.0514C27.5607 24.239 26.7209 23.0281 26.2573 22.3602C25.1609 20.7813 24.8938 20.3949 24.4715 19.7774C24.2502 19.4537 24.1567 19.3023 24.0675 19.3048C23.9874 19.307 23.9108 19.4332 23.7484 19.6702Z" fill="#6B69B2"/>
<path fill-rule="evenodd" clip-rule="evenodd" d="M2.05326 3.76427C1.32813 2.7166 0.574677 1.62852 0.379104 1.3463L0.0234375 0.833008L5.01481 0.846233L10.0062 0.859458L10.3987 0.99171C11.4415 1.3433 11.9699 1.77125 12.7575 2.90176C13.0076 3.26071 13.4059 3.83139 13.6428 4.17001C13.8796 4.50862 14.1956 4.96302 14.3448 5.17974C14.7636 5.7881 15.3063 6.56839 15.96 7.50251C16.0975 7.69889 16.3493 8.06321 16.5195 8.31212C16.6897 8.56091 17.0003 9.01056 17.2096 9.31125C17.4191 9.61206 17.5904 9.88205 17.5904 9.91125C17.5904 9.94057 17.175 10.5624 16.6674 11.2932C16.1598 12.0238 15.5962 12.836 15.4148 13.0979C15.2335 13.3599 14.773 14.0242 14.3915 14.5741C13.44 15.9459 13.346 16.0816 12.9884 16.5981C12.8162 16.8469 12.5622 17.2112 12.424 17.4076C12.2857 17.6041 12.1374 17.8235 12.0943 17.8954C12.0512 17.9673 11.9944 18.026 11.968 18.026C11.9417 18.026 11.8847 17.9673 11.8413 17.8954C11.798 17.8235 11.5973 17.5291 11.3955 17.2409C11.1937 16.9528 10.8888 16.5135 10.7181 16.2647C10.5475 16.0159 10.2949 15.6516 10.1569 15.4551C10.0188 15.2587 9.7167 14.8233 9.48552 14.4874C9.25435 14.1517 8.92827 13.6802 8.76115 13.4398C8.00594 12.3538 7.57505 11.7325 6.82348 10.6455C6.3798 10.0038 5.82706 9.20557 5.59513 8.8717C5.36308 8.53795 4.954 7.94855 4.68584 7.56215C4.41781 7.17575 4.0125 6.59172 3.78508 6.26433C3.55779 5.93695 2.77851 4.81193 2.05326 3.76427Z" fill="#6B69B2"/>
<path fill-rule="evenodd" clip-rule="evenodd" d="M26.0632 0.887406C25.4746 1.00232 24.7566 1.33844 24.3133 1.7065C23.8803 2.06607 23.763 2.21242 22.8544 3.52621C22.7457 3.68329 22.4589 4.09602 22.2171 4.44324C21.9752 4.79047 21.5835 5.35379 21.3466 5.69502C21.1098 6.03626 20.6969 6.63077 20.4291 7.01617C19.625 8.17338 19.581 8.23676 18.5879 9.6692C18.0614 10.4288 17.5346 11.1896 17.4173 11.3598C17.1807 11.7031 16.5372 12.6315 15.7721 13.7333C15.4958 14.1312 14.9841 14.869 14.635 15.3726C14.286 15.8764 13.8809 16.46 13.7348 16.6695C13.1209 17.5507 10.5627 21.2385 10.2001 21.7649C9.98373 22.0792 9.69401 22.497 9.55648 22.6936C9.41895 22.8899 9.06555 23.3999 8.77106 23.8266C8.47657 24.2533 8.04192 24.8798 7.8051 25.2189C7.56816 25.5581 7.18504 26.109 6.95348 26.4432C5.01455 29.2424 3.02723 32.1083 2.21548 33.2761C1.99677 33.5908 1.68149 34.0447 1.44413 34.3864L1.29742 34.5976C1.0606 34.9389 0.689889 35.4697 0.473756 35.7774C0.257498 36.0851 0.0798528 36.3637 0.0789753 36.3964C0.0767186 36.476 9.20295 36.4833 9.7745 36.4042C11.0915 36.222 11.8418 35.6838 12.899 34.1634C14.3296 32.1063 14.5742 31.754 15.5562 30.3366C16.1187 29.5248 16.8031 28.539 17.077 28.1461C17.3508 27.7532 17.7662 27.1532 17.9998 26.8127C18.2335 26.4722 18.7306 25.7543 19.1046 25.2174C19.4785 24.6805 19.9206 24.042 20.0871 23.7987C20.2534 23.5553 20.4435 23.2836 20.5093 23.1946C20.575 23.1058 20.8183 22.7584 21.0498 22.4228C21.5047 21.7632 24.2127 17.8551 24.8879 16.8838C25.1154 16.5564 25.5615 15.9135 25.879 15.4551C26.1966 14.9968 26.6123 14.3968 26.8029 14.1217C26.9934 13.8468 27.2756 13.4381 27.43 13.2137C27.5844 12.9892 27.8896 12.5499 28.1082 12.2375C28.5395 11.6212 30.7509 8.43389 31.3563 7.55591C31.5619 7.25785 31.8701 6.8133 32.0411 6.56801C32.2122 6.3226 32.5418 5.84861 32.7736 5.51449L33.0793 5.07416C33.3319 4.71046 33.6537 4.24693 33.9227 3.85959C34.87 2.49564 35.1985 2.02228 35.649 1.37137L36.0199 0.835628L31.1475 0.840868C28.4677 0.843738 26.1798 0.864699 26.0632 0.887406ZM31.5634 5.52622C33.0686 3.37113 34.0986 1.86982 34.0986 1.83126C34.0986 1.75241 26.6192 1.7841 26.2273 1.86458C25.4144 2.03151 24.749 2.51224 24.1786 3.3448C24.0024 3.6017 23.7131 4.02004 23.5355 4.27444C23.358 4.52883 23.09 4.91461 22.9399 5.1317C22.7899 5.34867 22.1618 6.25485 21.5441 7.14531C20.9265 8.03589 20.31 8.92522 20.174 9.1216C19.8111 9.64562 18.7218 11.2142 17.462 13.0265C17.0524 13.6158 16.5177 14.3872 16.2739 14.7408C16.0301 15.0944 15.2806 16.1766 14.6083 17.1457C13.9361 18.1148 13.2931 19.0423 13.1795 19.2068C13.0659 19.3714 12.876 19.6435 12.7575 19.8115C12.6391 19.9794 12.2299 20.5685 11.8484 21.1206C11.4668 21.6726 10.8895 22.5042 10.5654 22.9684C10.2415 23.4328 9.81511 24.0484 9.61791 24.3365C9.42083 24.6246 9.05752 25.1496 8.81067 25.5032C8.5637 25.8568 8.2217 26.3496 8.0507 26.5984C7.87957 26.8473 7.62746 27.2116 7.49043 27.408C7.3534 27.6044 7.10041 27.9687 6.92816 28.2176C6.5068 28.8262 6.05071 29.483 4.69587 31.4319C3.08616 33.7475 1.94344 35.4075 1.94344 35.4302C1.94344 35.4458 3.72528 35.4525 5.90303 35.4452L9.86263 35.4317L10.1603 35.324C11.0416 35.0054 11.3015 34.7435 12.6045 32.8605C13.7414 31.2177 13.9066 30.9793 14.3366 30.3604C14.4913 30.1379 14.7069 29.8271 14.8158 29.67C14.9247 29.5128 15.4265 28.7899 15.9313 28.0634C17.6293 25.6189 18.071 24.9819 19.1923 23.3602C19.4187 23.0328 19.8061 22.4757 20.0532 22.1221C20.3003 21.7685 20.6641 21.2435 20.8615 20.9553C21.0589 20.6672 21.3545 20.2387 21.5185 20.003C21.6824 19.7673 22.122 19.1351 22.4955 18.5981C22.8691 18.0612 23.3154 17.4183 23.4874 17.1695C23.7818 16.7437 27.4005 11.5249 27.8295 10.9074C28.3308 10.186 28.6718 9.69416 29.8107 8.05011C30.482 7.08105 31.2707 5.94531 31.5634 5.52622Z" fill="#6B69B2"/>
</svg>
