<svg width="32" height="30" viewBox="0 0 32 30" fill="none" xmlns="http://www.w3.org/2000/svg">
<path d="M11.7377 0.664387C10.901 0.638208 10.0642 0.899783 9.39172 1.41637C8.49287 2.10442 7.95638 3.19047 7.95638 4.32136V16.7648H10.5183C13.5449 16.7648 16.008 19.2279 16.008 22.2545V28.8422C16.008 29.2368 15.9102 29.6064 15.7507 29.9402H23.6937C24.2997 29.9402 24.7916 29.4483 24.7916 28.8422V6.88324C24.7916 5.23193 23.6789 3.77815 22.0839 3.34922L12.5683 0.787335C12.2959 0.713406 12.0167 0.673113 11.7377 0.664387ZM13.0801 7.2478H14.5441C14.9481 7.2478 15.276 7.57572 15.276 7.97976V9.4437C15.276 9.84774 14.9481 10.1757 14.5441 10.1757H13.0801C12.6761 10.1757 12.3482 9.84774 12.3482 9.4437V7.97976C12.3482 7.57572 12.6761 7.2478 13.0801 7.2478ZM18.2039 7.2478H19.6678C20.0719 7.2478 20.3998 7.57572 20.3998 7.97976V9.4437C20.3998 9.84774 20.0719 10.1757 19.6678 10.1757H18.2039C17.7999 10.1757 17.4719 9.84774 17.4719 9.4437V7.97976C17.4719 7.57572 17.7999 7.2478 18.2039 7.2478ZM13.0801 12.3716H14.5441C14.9481 12.3716 15.276 12.6995 15.276 13.1035V14.5675C15.276 14.9715 14.9481 15.2994 14.5441 15.2994H13.0801C12.6761 15.2994 12.3482 14.9715 12.3482 14.5675V13.1035C12.3482 12.6995 12.6761 12.3716 13.0801 12.3716ZM18.2039 12.3716H19.6678C20.0719 12.3716 20.3998 12.6995 20.3998 13.1035V14.5675C20.3998 14.9715 20.0719 15.2994 19.6678 15.2994H18.2039C17.7999 15.2994 17.4719 14.9715 17.4719 14.5675V13.1035C17.4719 12.6995 17.7999 12.3716 18.2039 12.3716ZM26.2555 12.373V17.4968H27.7195C28.1235 17.4968 28.4514 17.8247 28.4514 18.2287V19.6927C28.4514 20.0967 28.1235 20.4246 27.7195 20.4246H26.2555V22.6205H27.7195C28.1235 22.6205 28.4514 22.9484 28.4514 23.3525V24.8164C28.4514 25.2205 28.1235 25.5484 27.7195 25.5484H26.2555V29.9402H30.2814C30.8874 29.9402 31.3793 29.4483 31.3793 28.8422V16.3988C31.3793 14.1846 29.5677 12.373 27.3535 12.373H26.2555ZM18.2039 17.4953H19.6678C20.0719 17.4953 20.3998 17.8232 20.3998 18.2273V19.6912C20.3998 20.0953 20.0719 20.4232 19.6678 20.4232H18.2039C17.7999 20.4232 17.4719 20.0953 17.4719 19.6912V18.2273C17.4719 17.8232 17.7999 17.4953 18.2039 17.4953ZM4.66253 18.2287C2.44834 18.2287 0.636719 20.0403 0.636719 22.2545V28.8422C0.636719 29.4483 1.1286 29.9402 1.73467 29.9402H13.4461C14.0522 29.9402 14.5441 29.4483 14.5441 28.8422V22.2545C14.5441 20.0403 12.7325 18.2287 10.5183 18.2287H4.66253ZM18.2039 22.6191H19.6678C19.9043 22.6191 20.1043 22.7387 20.2383 22.9122H20.254V22.935C20.3396 23.0551 20.3998 23.193 20.3998 23.3511V24.815C20.3998 24.9731 20.3396 25.1131 20.254 25.2324V25.2553H20.2383C20.1043 25.4288 19.9035 25.547 19.6678 25.547H18.2039C17.7999 25.547 17.4719 25.219 17.4719 24.815V23.3511C17.4719 22.947 17.7999 22.6191 18.2039 22.6191ZM4.29655 22.6205H5.76048C6.16453 22.6205 6.49245 22.9484 6.49245 23.3525V24.8164C6.49245 25.2205 6.16453 25.5484 5.76048 25.5484H4.29655C3.89251 25.5484 3.56458 25.2205 3.56458 24.8164V23.3525C3.56458 22.9484 3.89251 22.6205 4.29655 22.6205ZM9.42031 22.6205H10.8842C11.2883 22.6205 11.6162 22.9484 11.6162 23.3525V24.8164C11.6162 25.2205 11.2883 25.5484 10.8842 25.5484H9.42031C9.01627 25.5484 8.68835 25.2205 8.68835 24.8164V23.3525C8.68835 22.9484 9.01627 22.6205 9.42031 22.6205Z" fill="#6B69B2"/>
</svg>
