<svg width="36" height="35" viewBox="0 0 36 35" fill="none" xmlns="http://www.w3.org/2000/svg">
<path opacity="0.28" d="M17.8353 0.380036C17.5018 0.385249 17.184 0.522565 16.9516 0.761845C16.7193 1.00112 16.5913 1.32282 16.5959 1.65633V2.91541H1.48697C1.32013 2.91305 1.15448 2.94387 0.999654 3.00609C0.844827 3.0683 0.70391 3.16067 0.585091 3.27782C0.466272 3.39497 0.371922 3.53457 0.307523 3.6885C0.243124 3.84243 0.209961 4.00762 0.209961 4.17448C0.209961 4.34134 0.243124 4.50654 0.307523 4.66047C0.371922 4.8144 0.466272 4.954 0.585091 5.07115C0.70391 5.1883 0.844827 5.28067 0.999654 5.34288C1.15448 5.4051 1.32013 5.43592 1.48697 5.43356V24.3197C1.48697 25.711 2.61385 26.8379 4.00513 26.8379H13.8097L11.7465 30.6692C11.3346 30.7685 10.9681 31.0034 10.7059 31.3361C10.4436 31.6688 10.3008 32.0801 10.3005 32.5037C10.3005 33.0046 10.4995 33.485 10.8537 33.8392C11.2079 34.1934 11.6882 34.3923 12.1891 34.3923C12.69 34.3923 13.1704 34.1934 13.5246 33.8392C13.8788 33.485 14.0777 33.0046 14.0777 32.5037C14.0772 32.2857 14.039 32.0694 13.9646 31.8644L16.6697 26.8379H19.0403L21.7453 31.8644C21.671 32.0694 21.6327 32.2857 21.6322 32.5037C21.6322 33.0046 21.8312 33.485 22.1854 33.8392C22.5396 34.1934 23.0199 34.3923 23.5208 34.3923C24.0217 34.3923 24.5021 34.1934 24.8563 33.8392C25.2105 33.485 25.4094 33.0046 25.4094 32.5037C25.4091 32.0801 25.2663 31.6688 25.0041 31.3361C24.7418 31.0034 24.3753 30.7685 23.9635 30.6692L21.9003 26.8379H31.7048C33.0961 26.8379 34.223 25.711 34.223 24.3197V5.43356C34.3898 5.43592 34.5555 5.4051 34.7103 5.34288C34.8651 5.28067 35.0061 5.1883 35.1249 5.07115C35.2437 4.954 35.338 4.8144 35.4024 4.66047C35.4668 4.50654 35.5 4.34134 35.5 4.17448C35.5 4.00762 35.4668 3.84243 35.4024 3.6885C35.338 3.53457 35.2437 3.39497 35.1249 3.27782C35.0061 3.16067 34.8651 3.0683 34.7103 3.00609C34.5555 2.94387 34.3898 2.91305 34.223 2.91541H19.1141V1.65633C19.1164 1.48788 19.0848 1.32068 19.0214 1.16462C18.9579 1.00857 18.8637 0.866848 18.7445 0.747838C18.6253 0.628829 18.4834 0.534956 18.3272 0.471779C18.171 0.408602 18.0038 0.377405 17.8353 0.380036ZM27.9276 9.2108C28.2496 9.2108 28.5717 9.33352 28.8178 9.57967C29.3101 10.072 29.3101 10.8678 28.8178 11.3601L21.2633 18.9145C20.771 19.4068 19.9752 19.4068 19.4829 18.9145L16.5959 16.0275L12.4498 20.1736C12.2043 20.4191 11.8819 20.5425 11.5596 20.5425C11.2373 20.5425 10.9149 20.4191 10.6694 20.1736L8.15123 17.6555C7.65893 17.1632 7.65893 16.3674 8.15123 15.8751C8.64353 15.3828 9.43935 15.3828 9.93164 15.8751L11.5596 17.503L15.7057 13.3569C16.198 12.8646 16.9938 12.8646 17.4861 13.3569L20.3731 16.2439L27.0374 9.57967C27.2835 9.33352 27.6056 9.2108 27.9276 9.2108Z" fill="#6B69B2"/>
</svg>
