<svg width="36" height="35" viewBox="0 0 36 35" fill="none" xmlns="http://www.w3.org/2000/svg">
<path d="M2.68646 0.267578C1.31819 0.267578 0.209961 1.37581 0.209961 2.74407V28.7473H17.7183C17.6069 28.1467 17.5454 27.5276 17.5454 26.8899C17.5454 26.6794 17.5512 26.4751 17.5636 26.2708H2.68646V6.45881H28.6896V13.8883H31.1661V2.74407C31.1661 1.37581 30.0579 0.267578 28.6896 0.267578H2.68646ZM7.63944 10.1736V12.65H10.1159V10.1736H7.63944ZM12.5924 10.1736V12.65H23.7367V10.1736H12.5924ZM7.63944 15.1265V17.603H10.1159V15.1265H7.63944ZM12.5924 15.1265V17.603H23.7367V15.1265H12.5924ZM24.9761 15.1265V16.9839H26.2144V18.3153V18.8413V19.6466L26.7706 20.117C26.9929 20.0923 27.2223 20.0795 27.4514 20.0795C30.8628 20.0795 33.6426 22.8594 33.6426 26.2708C33.6426 29.6821 30.8628 32.462 27.4514 32.462C24.04 32.462 21.2602 29.6821 21.2602 26.2708C21.2602 24.7415 21.8178 23.3481 22.7403 22.2646L25.6122 26.0894C25.6066 26.1494 25.594 26.2089 25.594 26.2708C25.594 27.2967 26.4255 28.1281 27.4514 28.1281C28.4773 28.1281 29.3088 27.2967 29.3088 26.2708C29.3088 25.2449 28.4773 24.4134 27.4514 24.4134C27.4396 24.4134 27.4281 24.4164 27.4163 24.417L23.9592 21.163L22.5855 19.8691C22.2326 20.1353 21.9106 20.4263 21.6072 20.7482C20.2451 22.1908 19.4028 24.1348 19.4028 26.2708C19.4028 30.7099 23.0123 34.3194 27.4514 34.3194C31.8905 34.3194 35.5 30.7099 35.5 26.2708C35.5 24.6097 34.9937 23.0649 34.1287 21.7821L35.4807 20.4314L33.292 18.2427L31.9412 19.5934C30.9841 18.9483 29.8783 18.5131 28.6909 18.3286V16.9839H29.9291V15.1265H24.9761ZM7.63944 20.0795V22.556H10.1159V20.0795H7.63944ZM12.5924 20.0795V22.556H18.5418C18.9876 21.6459 19.5702 20.8101 20.2698 20.0795H12.5924Z" fill="#6B69B2"/>
</svg>
