<svg width="15" height="24" viewBox="0 0 15 24" fill="none" xmlns="http://www.w3.org/2000/svg">
<path d="M6.97379 23.2173V20.1435H3.89998V18.2992H6.97379V14.5474L6.71744 14.5043C3.30366 13.9307 0.826172 11.0014 0.826172 7.54091C0.826172 3.6427 3.99773 0.471146 7.89594 0.471146C11.7941 0.471146 14.9657 3.6427 14.9657 7.54091C14.9657 11.0014 12.4882 13.9307 9.07444 14.5043L8.81808 14.5474V18.2992H11.8919V20.1435H8.81808V23.2173H6.97379ZM7.89594 2.93019C5.35328 2.93019 3.28522 4.99825 3.28522 7.54091C3.28522 10.0836 5.35328 12.1516 7.89594 12.1516C10.4386 12.1516 12.5067 10.0836 12.5067 7.54091C12.5067 4.99825 10.4386 2.93019 7.89594 2.93019Z" fill="black"/>
</svg>
