<svg width="135" height="134" viewBox="0 0 135 134" fill="none" xmlns="http://www.w3.org/2000/svg">
<path fill-rule="evenodd" clip-rule="evenodd" d="M5.37455 0.438477C2.53591 0.438477 0.220703 2.75368 0.220703 5.59232V88.0539C0.220703 90.8925 2.53591 93.2077 5.37455 93.2077H46.6053H87.8361C90.6747 93.2077 92.9899 90.8925 92.9899 88.0539V5.59232C92.9899 2.75368 90.6747 0.438477 87.8361 0.438477H5.37455ZM10.5284 10.7462H82.6822V72.5923H10.5284V10.7462Z" fill="black" fill-opacity="0.36"/>
<path d="M98.1438 15.4168V25.8856L107.485 27.4962L98.1438 81.6116V88.0539C98.1438 93.7513 93.5134 98.3616 87.8361 98.3616H33.2375L98.6269 109.636C101.425 110.119 104.103 108.246 104.586 105.448L118.437 24.114C118.92 21.3156 117.048 18.638 114.25 18.1548L98.1438 15.4168Z" fill="black" fill-opacity="0.36"/>
<path d="M120.853 41.1861L119.081 51.3327L122.786 52.138L107.168 109.506C106.743 111.067 105.953 112.565 104.561 113.39C103.051 114.285 101.312 114.789 99.4322 114.789C98.8685 114.789 98.2444 114.729 97.6606 114.628L26.312 102.388L24.8625 108.508C24.2384 111.266 25.9698 114.145 28.7279 114.789L108.935 133.633C111.693 134.298 114.552 132.526 115.216 129.768L133.899 49.5611C134.563 46.803 132.972 43.9442 130.194 43.2798L120.853 41.1861Z" fill="black" fill-opacity="0.36"/>
<path d="M53.0921 44.4135C53.0244 44.4947 52.4048 45.3839 51.4223 46.81C51.2411 47.073 50.4744 48.178 49.719 49.2655C48.9634 50.3527 48.3452 51.273 48.3452 51.3105C48.3452 51.3477 48.5917 51.7355 48.8934 52.1722C49.1948 52.6088 49.6292 53.2388 49.8584 53.5722C50.0876 53.9055 50.5458 54.5657 50.8767 55.0394C51.2075 55.5131 51.617 56.1016 51.7866 56.3472C56.3377 62.9334 56.1161 62.6573 57.1688 63.0516L57.2395 63.0781C57.4639 63.1621 57.7016 63.2052 57.9412 63.2052H61.9386C66.1746 63.2052 66.2965 63.2019 66.2342 63.0862C66.1991 63.0207 65.9168 62.6055 65.6071 62.1634C65.2972 61.7215 64.8851 61.1278 64.6913 60.8443C64.4973 60.5607 64.2089 60.1443 64.0502 59.919C63.8915 59.6937 63.637 59.329 63.4845 59.1085C63.3321 58.8881 61.6437 56.4541 59.7327 53.6998C57.8218 50.9454 56.0305 48.3617 55.7519 47.9582C55.4732 47.5547 55.1248 47.0523 54.9773 46.8419C54.4422 46.0775 53.906 45.3002 53.581 44.8176C53.2244 44.2881 53.208 44.2746 53.0921 44.4135Z" fill="black" fill-opacity="0.36"/>
<path d="M54.0947 42.9511C53.8707 43.2781 53.8718 43.7094 54.0977 44.0352L56.4665 47.4511C57.9757 49.6273 59.3745 51.6437 59.5752 51.9319C59.7757 52.22 60.0641 52.6361 60.2161 52.8565C60.3681 53.077 60.6224 53.4415 60.7809 53.6667C60.9396 53.8917 61.5454 54.7666 62.1272 55.6111C62.7088 56.4553 63.477 57.5628 63.8342 58.0719C64.1914 58.581 64.7049 59.32 64.9753 59.7139C65.2455 60.1079 65.7661 60.8609 66.1322 61.387C67.4805 63.3259 67.9604 64.0287 67.9604 64.065C67.9604 64.0852 65.5735 64.0937 62.6561 64.0837L57.7063 64.0667C57.4717 64.0659 57.239 64.0238 57.0189 63.9424L56.9352 63.9114C55.6771 63.4454 55.5082 63.2691 53.4092 60.2296C53.0037 59.6424 52.4211 58.8015 52.1144 58.3607C51.8078 57.92 51.3696 57.2867 51.1405 56.9534C50.6323 56.2136 49.2074 54.1614 48.4053 53.014C48.0161 52.4572 47.8727 52.2204 47.745 52.2286C47.6437 52.235 47.5523 52.3956 47.356 52.6728C47.1767 52.926 47.064 53.0497 47.0476 53.1852C47.0232 53.3853 47.2089 53.611 47.6999 54.3177C48.0854 54.8726 48.5541 55.5504 48.7415 55.8238C48.929 56.0973 49.2121 56.5054 49.3707 56.7309C49.5294 56.9562 49.7835 57.3209 49.9355 57.5414C50.0873 57.7619 50.4768 58.3219 50.8008 58.7863C51.3894 59.6295 53.1942 62.2323 53.7189 62.9944C54.4995 64.1283 55.5693 64.9036 56.8479 65.2621C57.4337 65.4262 70.4604 65.5313 70.4604 65.3719C70.4604 65.3326 69.8782 64.463 69.1667 63.4395C67.7645 61.4225 67.1833 60.5841 66.6388 59.7921C66.009 58.8762 65.2546 57.7908 64.3112 56.4429C64.1271 56.1798 63.7897 55.6918 63.5615 55.3585C63.3332 55.025 62.8522 54.3301 62.4926 53.8138C61.4403 52.3035 61.3899 52.2307 59.9555 50.16C59.2019 49.0717 58.0768 47.4494 57.4557 46.5547C55.987 44.4395 55.6291 43.9219 55.0634 43.0947C54.7669 42.6611 54.6417 42.4582 54.5221 42.4616C54.4149 42.4646 54.3123 42.6336 54.0947 42.9511Z" fill="black" fill-opacity="0.36"/>
<path fill-rule="evenodd" clip-rule="evenodd" d="M25.0308 21.6427C24.0594 20.2392 23.05 18.7815 22.788 18.4034C22.587 18.1134 22.7952 17.7171 23.1481 17.718L35.3598 17.7504C35.5751 17.751 35.789 17.7863 35.993 17.8551L36.2108 17.9284C37.6077 18.3994 38.3157 18.9727 39.3707 20.4872C39.7058 20.9681 40.2393 21.7326 40.5567 22.1862C40.874 22.6399 41.2972 23.2486 41.4971 23.5389C42.0582 24.3539 42.7853 25.3992 43.6609 26.6506C43.8452 26.9137 44.1824 27.4018 44.4105 27.7352C44.6386 28.0685 45.0546 28.6709 45.3351 29.0737C45.6157 29.4767 45.8451 29.8384 45.8451 29.8775C45.8451 29.9168 45.2887 30.7498 44.6087 31.7288C43.9286 32.7076 43.1736 33.7957 42.9305 34.1465C42.6877 34.4975 42.0708 35.3874 41.5597 36.1241C40.285 37.9619 40.159 38.1436 39.6801 38.8355C39.4493 39.1688 39.109 39.6569 38.924 39.92C38.7387 40.1832 38.54 40.4772 38.4823 40.5735C38.4245 40.6698 38.3484 40.7485 38.3131 40.7485C38.2779 40.7485 38.2014 40.6698 38.1433 40.5735C38.0854 40.4772 37.8165 40.0828 37.5461 39.6967C37.2757 39.3107 36.8673 38.7222 36.6387 38.3889C36.4101 38.0557 36.0717 37.5676 35.8868 37.3043C35.7019 37.0413 35.2971 36.4579 34.9874 36.008C34.6777 35.5582 34.2409 34.9266 34.017 34.6045C33.0053 33.1497 32.4281 32.3173 31.4212 30.8611C30.8268 30.0015 30.0864 28.9321 29.7757 28.4849C29.4648 28.0378 28.9168 27.2482 28.5575 26.7305C28.1984 26.2129 27.6555 25.4305 27.3508 24.9919C27.0463 24.5533 26.0024 23.0462 25.0308 21.6427Z" fill="black" fill-opacity="0.36"/>
<path fill-rule="evenodd" clip-rule="evenodd" d="M57.1957 17.7887C56.4072 17.9426 55.4454 18.3929 54.8515 18.886C54.2714 19.3677 54.1142 19.5638 52.8971 21.3238C52.7515 21.5342 52.3672 22.0871 52.0432 22.5523C51.7193 23.0174 51.1944 23.7721 50.8772 24.2292C50.5599 24.6864 50.0067 25.4828 49.648 25.9991C48.5707 27.5494 48.5118 27.6343 47.1815 29.5532C46.4761 30.5708 45.7704 31.5901 45.6132 31.818C45.2963 32.278 44.4342 33.5217 43.4092 34.9978C43.039 35.5308 42.3536 36.5191 41.8859 37.1939C41.4183 37.8688 40.8757 38.6505 40.68 38.9312C39.8576 40.1117 36.4304 45.0521 35.9447 45.7573C35.6548 46.1783 35.2667 46.7381 35.0825 47.0013C34.8982 47.2644 34.4248 47.9475 34.0303 48.5192C33.6358 49.0908 33.0535 49.9302 32.7362 50.3845C32.4188 50.8388 31.9056 51.5769 31.5954 52.0245C28.9979 55.7745 26.3356 59.6138 25.2481 61.1783C24.9551 61.5998 24.5327 62.2079 24.2148 62.6657L24.0182 62.9486C23.701 63.4058 23.2043 64.117 22.9148 64.5292C22.6251 64.9413 22.3871 65.3146 22.3859 65.3583C22.3829 65.465 34.6089 65.4749 35.3745 65.3689C37.1388 65.1247 38.144 64.4038 39.5603 62.367C41.4768 59.6111 41.8044 59.1391 43.12 57.2404C43.8736 56.1528 44.7904 54.8322 45.1574 54.3058C45.5242 53.7795 46.0806 52.9757 46.3936 52.5196C46.7067 52.0634 47.3726 51.1017 47.8736 50.3825C48.3746 49.6631 48.9668 48.8078 49.1898 48.4819C49.4127 48.1558 49.6673 47.7918 49.7555 47.6726C49.8435 47.5536 50.1694 47.0882 50.4795 46.6386C51.089 45.7549 54.7166 40.5195 55.6212 39.2183C55.926 38.7797 56.5236 37.9184 56.949 37.3043C57.3744 36.6904 57.9313 35.8866 58.1866 35.5181C58.4419 35.1497 58.82 34.6023 59.0267 34.3016C59.2336 34.0009 59.6424 33.4124 59.9353 32.9939C60.513 32.1682 63.4756 27.8984 64.2867 26.7222C64.5621 26.3229 64.9749 25.7273 65.204 25.3987C65.4333 25.07 65.8748 24.435 66.1853 23.9874L66.5949 23.3975C66.9332 22.9103 67.3643 22.2893 67.7247 21.7704C68.9938 19.9432 69.4338 19.309 70.0374 18.437C70.2472 18.1339 70.03 17.7199 69.6613 17.7203L64.0069 17.7263C60.417 17.7302 57.3519 17.7583 57.1957 17.7887ZM64.5641 24.0031C66.5805 21.116 67.9604 19.1048 67.9604 19.0531C67.9604 18.9475 57.9406 18.99 57.4156 19.0978C56.3266 19.3214 55.4351 19.9654 54.671 21.0807C54.435 21.4249 54.0474 21.9853 53.8095 22.3261C53.5717 22.6669 53.2127 23.1837 53.0116 23.4746C52.8106 23.7652 51.9692 24.9792 51.1417 26.1721C50.3144 27.3652 49.4884 28.5566 49.3062 28.8197C48.8201 29.5217 47.3608 31.623 45.6731 34.0509C45.1244 34.8403 44.4081 35.8738 44.0815 36.3475C43.7548 36.8211 42.7508 38.2709 41.8501 39.5691C40.9496 40.8673 40.0882 42.1099 39.936 42.3303C39.7839 42.5508 39.5294 42.9154 39.3707 43.1403C39.2122 43.3653 38.664 44.1545 38.1529 44.8942C37.6417 45.6336 36.8683 46.7476 36.4341 47.3695C36.0001 47.9917 35.429 48.8163 35.1648 49.2023C34.9008 49.5882 34.414 50.2915 34.0834 50.7652C33.7525 51.2389 33.2943 51.8991 33.0653 52.2324C32.836 52.5659 32.4983 53.0539 32.3147 53.317C32.1311 53.5801 31.7922 54.0681 31.5614 54.4016C30.997 55.2169 30.386 56.0968 28.571 58.7077C26.4145 61.8097 24.8836 64.0336 24.8836 64.064C24.8836 64.0849 27.2707 64.0939 30.1881 64.084L35.1455 64.0672C35.3752 64.0664 35.603 64.026 35.8191 63.9479L35.8913 63.9218C37.072 63.4949 37.4201 63.144 39.1658 60.6215C40.6888 58.4207 40.9101 58.1013 41.4862 57.2723C41.6934 56.9741 41.9823 56.5578 42.1281 56.3473C42.274 56.1367 42.9463 55.1683 43.6225 54.195C45.8972 50.9203 46.489 50.0669 47.9911 47.8944C48.2945 47.4558 48.8134 46.7095 49.1445 46.2358C49.4755 45.7621 49.9629 45.0588 50.2272 44.6727C50.4917 44.2868 50.8878 43.7126 51.1074 43.3969C51.3269 43.0812 51.9159 42.2342 52.4163 41.5149C52.9167 40.7956 53.5146 39.9343 53.7451 39.6011C54.1394 39.0306 58.9872 32.0392 59.5619 31.212C60.2336 30.2455 60.6904 29.5867 62.216 27.3842C63.1154 26.086 64.172 24.5645 64.5641 24.0031Z" fill="black" fill-opacity="0.36"/>
</svg>
