<svg width="22" height="22" viewBox="0 0 22 22" fill="none" xmlns="http://www.w3.org/2000/svg">
<path d="M7.65449 21.1809C3.75462 21.1809 0.582031 18.0013 0.582031 14.0929C0.582031 10.1845 3.75462 7.00493 7.65449 7.00493C9.08018 7.00493 10.4552 7.42962 11.6316 8.23233L11.8331 8.36996L17.9101 2.27962H13.5482V0.507629H21.21V8.18626H19.4419V3.81476L13.3643 9.90509L13.5016 10.1071C14.3026 11.2855 14.7264 12.6635 14.7264 14.0929C14.7269 18.0013 11.5544 21.1809 7.65449 21.1809ZM7.65449 9.36759C5.05477 9.36759 2.93952 11.4875 2.93952 14.0929C2.93952 16.6983 5.05477 18.8182 7.65449 18.8182C10.2542 18.8182 12.3695 16.6983 12.3695 14.0929C12.3695 11.4875 10.2542 9.36759 7.65449 9.36759Z" fill="black"/>
</svg>
