<svg width="145" height="28" viewBox="0 0 145 28" fill="none" xmlns="http://www.w3.org/2000/svg">
<path d="M18.1637 16.004C18.1254 16.0498 17.7756 16.5519 17.2209 17.357C17.1186 17.5056 16.6858 18.1294 16.2592 18.7434C15.8326 19.3573 15.4836 19.8768 15.4836 19.898C15.4836 19.919 15.6228 20.138 15.7931 20.3845C15.9633 20.631 16.2085 20.9867 16.3379 21.175C16.4674 21.3631 16.7261 21.7359 16.9129 22.0033C17.0997 22.2708 17.3308 22.603 17.4266 22.7417C19.9961 26.4602 19.871 26.3043 20.4654 26.527L20.6968 26.6137H23.1583C25.55 26.6137 25.6188 26.6118 25.5836 26.5465C25.5638 26.5095 25.4044 26.2751 25.2296 26.0255C25.0546 25.776 24.8219 25.4408 24.7125 25.2807C24.603 25.1206 24.4402 24.8855 24.3505 24.7583C24.2609 24.6311 24.1173 24.4252 24.0312 24.3007C23.9451 24.1762 22.9918 22.8021 21.9129 21.247C20.834 19.6919 19.8227 18.2331 19.6654 18.0053C19.5081 17.7775 19.3113 17.4939 19.228 17.375C18.9259 16.9435 18.6232 16.5046 18.4397 16.2322C18.2384 15.9332 18.2291 15.9256 18.1637 16.004Z" fill="#6B69B2"/>
<path d="M18.7297 15.1784L18.5196 15.485L20.0688 17.719C20.9209 18.9477 21.7107 20.0861 21.824 20.2488C21.9372 20.4115 22.1 20.6464 22.1858 20.7709C22.2717 20.8954 22.4152 21.1012 22.5047 21.2283C22.5943 21.3553 22.9364 21.8493 23.2648 22.3261C23.5932 22.8027 24.0269 23.428 24.2286 23.7154C24.4303 24.0029 24.7202 24.4201 24.8728 24.6425C25.0254 24.8649 25.3193 25.2901 25.5261 25.5871C26.2873 26.6818 26.5582 27.0786 26.5582 27.0991C26.5582 27.1105 25.2106 27.1153 23.5634 27.1097L20.5686 27.0994L20.3335 27.0124C19.6232 26.7493 19.5278 26.6497 18.3427 24.9336C18.1138 24.6021 17.7848 24.1274 17.6117 23.8785C17.4386 23.6297 17.1912 23.2721 17.0618 23.0839C16.7749 22.6663 15.9704 21.5076 15.5175 20.8598C15.2978 20.5455 15.2168 20.4117 15.1447 20.4163C15.0875 20.42 15.0359 20.5106 14.9251 20.6672C14.8239 20.8101 14.7603 20.88 14.751 20.9564C14.7372 21.0694 14.8421 21.1969 15.1193 21.5958C15.3369 21.9092 15.6016 22.2918 15.7074 22.4462C15.8132 22.6006 15.9731 22.831 16.0626 22.9583C16.1522 23.0855 16.2957 23.2915 16.3815 23.4159C16.4672 23.5404 16.6871 23.8566 16.87 24.1188C17.2024 24.5949 18.2213 26.0644 18.5175 26.4947C18.9583 27.1349 19.5623 27.5726 20.2842 27.775C20.6149 27.8676 27.9697 27.927 27.9697 27.837C27.9697 27.8148 27.641 27.3238 27.2393 26.746C26.4476 25.6072 26.1195 25.1338 25.812 24.6867C25.4565 24.1695 25.0305 23.5567 24.4979 22.7957C24.394 22.6472 24.2035 22.3716 24.0746 22.1835C23.9457 21.9952 23.6742 21.6028 23.4712 21.3113C22.877 20.4586 22.8486 20.4176 22.0387 19.2484C21.6132 18.634 20.978 17.7181 20.6273 17.2129C19.7981 16.0187 19.596 15.7264 19.2767 15.2594C19.1093 15.0146 19.0385 14.9001 18.9711 14.902C18.9105 14.9036 18.8526 14.9991 18.7297 15.1784Z" fill="#6B69B2"/>
<path fill-rule="evenodd" clip-rule="evenodd" d="M2.32043 3.14775C1.77197 2.35534 1.20209 1.53235 1.05417 1.31889L0.785156 0.930664L8.33568 0.95067L8.63257 1.0507C9.42131 1.31663 9.82098 1.64031 10.4167 2.49538C10.6058 2.76688 10.9071 3.19852 11.0863 3.45463C11.2654 3.71075 11.5044 4.05444 11.6172 4.21835C11.934 4.67849 12.3445 5.26867 12.8389 5.9752C12.9429 6.12374 13.1333 6.39929 13.2621 6.58756C13.3909 6.77573 13.6257 7.11583 13.7841 7.34326C13.9425 7.57078 14.0721 7.77499 14.0721 7.79707C14.0721 7.81925 13.7579 8.28958 13.374 8.84229C12.99 9.39491 12.5637 10.0092 12.4265 10.2073C12.2894 10.4055 11.9411 10.9079 11.6526 11.3239C10.9329 12.3615 10.8618 12.464 10.5913 12.8547C10.461 13.0429 10.2689 13.3185 10.1644 13.467C10.0598 13.6156 9.94767 13.7816 9.91505 13.836C9.88243 13.8903 9.83947 13.9348 9.81956 13.9348C9.79965 13.9348 9.7565 13.8903 9.72369 13.836C9.69098 13.7816 9.53917 13.5589 9.38651 13.3409C9.23384 13.123 9.00323 12.7907 8.87418 12.6026C8.74513 12.4144 8.55406 12.1389 8.44966 11.9902C8.34526 11.8417 8.11674 11.5123 7.94189 11.2583C7.76703 11.0044 7.5204 10.6477 7.394 10.4659C6.82279 9.64451 6.49689 9.17456 5.92842 8.35243C5.59285 7.86709 5.17478 7.26333 4.99935 7.0108C4.82384 6.75836 4.51443 6.31257 4.31161 6.02031C4.10888 5.72805 3.80231 5.28632 3.63031 5.03869C3.45839 4.79107 2.86898 3.94016 2.32043 3.14775Z" fill="#6B69B2"/>
<path fill-rule="evenodd" clip-rule="evenodd" d="M20.4806 0.971809C20.0354 1.05872 19.4923 1.31295 19.157 1.59133C18.8295 1.8633 18.7407 1.974 18.0536 2.96769C17.9714 3.0865 17.7544 3.39867 17.5715 3.6613C17.3886 3.92392 17.0923 4.35 16.9131 4.60809C16.734 4.86619 16.4217 5.31585 16.2191 5.60736C15.6109 6.48262 15.5777 6.53056 14.8266 7.614C14.4283 8.18851 14.0299 8.76397 13.9411 8.89268C13.7622 9.15238 13.2755 9.85458 12.6968 10.6879C12.4878 10.9889 12.1008 11.5469 11.8367 11.9278C11.5727 12.3089 11.2664 12.7503 11.1559 12.9087C10.6915 13.5752 8.7566 16.3646 8.48237 16.7627C8.31871 17.0004 8.09957 17.3164 7.99555 17.4651C7.89153 17.6136 7.62423 17.9993 7.40149 18.322C7.17875 18.6448 6.85 19.1187 6.67089 19.3752C6.49167 19.6317 6.20189 20.0484 6.02676 20.3011C4.56023 22.4184 3.0571 24.586 2.44313 25.4693C2.27771 25.7073 2.03924 26.0506 1.85971 26.3091L1.74874 26.4688C1.56962 26.7269 1.28923 27.1285 1.12576 27.3612C0.96219 27.5939 0.827826 27.8046 0.827163 27.8293C0.825456 27.8895 7.72816 27.8951 8.16045 27.8353C9.15656 27.6974 9.72407 27.2904 10.5237 26.1404C11.6057 24.5845 11.7907 24.318 12.5335 23.246C12.9589 22.6319 13.4766 21.8863 13.6838 21.5891C13.8909 21.292 14.205 20.8382 14.3818 20.5806C14.5585 20.3231 14.9345 19.7801 15.2173 19.374C15.5002 18.9679 15.8345 18.485 15.9605 18.301C16.0863 18.1169 16.23 17.9113 16.2798 17.8441C16.3295 17.7769 16.5136 17.5141 16.6886 17.2603C17.0327 16.7614 19.0809 13.8055 19.5916 13.0708C19.7637 12.8232 20.1011 12.3369 20.3413 11.9902C20.5814 11.6436 20.8959 11.1898 21.04 10.9817C21.1841 10.7737 21.3976 10.4647 21.5143 10.2949C21.6311 10.1251 21.8619 9.79286 22.0273 9.55656C22.3535 9.09038 24.0262 6.67966 24.4841 6.01559C24.6396 5.79015 24.8726 5.45391 25.002 5.26838C25.1314 5.08276 25.3807 4.72426 25.556 4.47154L25.7873 4.13849C25.9783 3.86341 26.2217 3.51282 26.4252 3.21984C27.1416 2.18821 27.3901 1.83018 27.7309 1.33786L28.0114 0.932646L24.3261 0.936609C22.2992 0.93878 20.5687 0.954634 20.4806 0.971809ZM24.6407 4.48041C25.7791 2.85039 26.5582 1.71486 26.5582 1.6857C26.5582 1.62606 20.9011 1.65003 20.6047 1.7109C19.9898 1.83716 19.4865 2.20076 19.0551 2.83048C18.9219 3.02479 18.703 3.3412 18.5687 3.53362C18.4345 3.72603 18.2317 4.01782 18.1182 4.18202C18.0047 4.34613 17.5297 5.03152 17.0625 5.70503C16.5954 6.37863 16.1291 7.05128 16.0262 7.19982C15.7518 7.59616 14.9278 8.78256 13.975 10.1533C13.6652 10.599 13.2608 11.1825 13.0763 11.45C12.8919 11.7174 12.3251 12.536 11.8165 13.2689C11.3081 14.0019 10.8217 14.7034 10.7358 14.8279C10.6499 14.9523 10.5063 15.1582 10.4167 15.2852C10.3271 15.4122 10.0176 15.8578 9.7291 16.2754C9.44046 16.6929 9.0038 17.3218 8.75869 17.673C8.51367 18.0242 8.19117 18.4898 8.04202 18.7077C7.89296 18.9256 7.61816 19.3227 7.43146 19.5902C7.24466 19.8576 6.98598 20.2303 6.85664 20.4185C6.72721 20.6068 6.53652 20.8823 6.43288 21.0309C6.32924 21.1794 6.13789 21.455 6.0076 21.6432C5.6889 22.1035 5.34394 22.6003 4.31919 24.0744C3.10167 25.8258 2.23736 27.0814 2.23736 27.0985C2.23736 27.1103 3.58508 27.1154 5.23224 27.1099L8.22711 27.0997L8.45222 27.0182C9.11882 26.7772 9.31539 26.5791 10.301 25.1549C11.1608 23.9124 11.2858 23.7321 11.611 23.264C11.7281 23.0956 11.8911 22.8606 11.9735 22.7418C12.0559 22.6229 12.4354 22.0761 12.8172 21.5266C14.1015 19.6777 14.4356 19.1959 15.2837 17.9693C15.455 17.7217 15.748 17.3003 15.9349 17.0329C16.1218 16.7654 16.3969 16.3683 16.5462 16.1503C16.6955 15.9324 16.9191 15.6083 17.0431 15.43C17.1671 15.2518 17.4996 14.7736 17.7821 14.3674C18.0647 13.9614 18.4022 13.4751 18.5323 13.2869C18.755 12.9649 21.492 9.01753 21.8165 8.55051C22.1957 8.00487 22.4536 7.63287 23.315 6.38938C23.8228 5.65643 24.4193 4.79739 24.6407 4.48041Z" fill="#6B69B2"/>
<path d="M39.797 2.39569C39.797 1.58658 40.4529 0.930664 41.262 0.930664H49.0266C50.4295 0.930664 51.7217 1.18909 52.9031 1.70595C54.0845 2.1982 55.1059 2.87504 55.9673 3.73648C56.8288 4.59791 57.5056 5.61933 57.9979 6.80072C58.4901 7.95751 58.7362 9.20042 58.7362 10.5295C58.7362 11.8586 58.4901 13.1138 57.9979 14.2952C57.5056 15.4766 56.8288 16.498 55.9673 17.3595C55.1059 18.2209 54.0722 18.91 52.8662 19.4269C51.6848 19.9191 50.3926 20.1653 48.9897 20.1653H44.8179V26.4162C44.8179 27.2253 44.162 27.8812 43.3529 27.8812H39.797V2.39569ZM44.8179 5.5824V15.5135H48.6574C49.3958 15.5135 50.0727 15.3904 50.688 15.1443C51.3033 14.8736 51.8325 14.5167 52.2755 14.0737C52.7185 13.606 53.0631 13.0769 53.3092 12.4862C53.5553 11.8709 53.6784 11.2186 53.6784 10.5295C53.6784 9.84034 53.5553 9.20044 53.3092 8.60974C53.0631 7.99443 52.7185 7.46525 52.2755 7.02223C51.8325 6.57921 51.3033 6.23463 50.688 5.9885C50.0727 5.71777 49.3958 5.5824 48.6574 5.5824H44.8179Z" fill="#6B69B2"/>
<path d="M84.3969 0.930664H90.0824L101.749 19.2792V0.930664H105.305C106.114 0.930664 106.77 1.58658 106.77 2.39569V27.8812H101.416L89.4179 8.942V27.8812H85.862C85.0528 27.8812 84.3969 27.2253 84.3969 26.4162V0.930664Z" fill="#6B69B2"/>
<path d="M130.081 0.930664H133.637C134.446 0.930664 135.102 1.58658 135.102 2.39569V23.0818H143.494C144.303 23.0818 144.959 23.7377 144.959 24.5469V27.8813H130.081V0.930664Z" fill="#6B69B2"/>
<path d="M110.43 0.930664H124.951C125.76 0.930664 126.416 1.58658 126.416 2.39569V5.73008H115.451V11.9324H126.416V16.7318H115.451V23.0818H126.416V27.8813H111.895C111.086 27.8813 110.43 27.2253 110.43 26.4162V0.930664Z" fill="#6B69B2"/>
<path d="M67.0967 1.90442C67.3046 1.32073 67.8572 0.930938 68.4768 0.930938H72.5012L82.1001 27.8815H77.9008C77.2764 27.8815 76.7206 27.4858 76.5164 26.8957L75.1963 23.0821H64.7483L63.087 27.8815H57.8445L67.0967 1.90442ZM66.4466 18.2827H73.535L69.9908 8.05623L66.4466 18.2827Z" fill="#6B69B2"/>
<path d="M26.1227 14.8307C26.1227 13.902 26.8757 13.1491 27.8044 13.1491H35.6655V14.6241C35.6655 15.5529 34.9126 16.3058 33.9838 16.3058H26.1227V14.8307Z" fill="#6B69B2"/>
</svg>
