<svg width="68" height="13" viewBox="0 0 68 13" fill="none" xmlns="http://www.w3.org/2000/svg">
<path d="M8.81806 7.18925C8.80035 7.2105 8.63821 7.44321 8.38108 7.81642C8.33366 7.88527 8.13302 8.17444 7.93532 8.45903C7.73757 8.74357 7.57578 8.98441 7.57578 8.99421C7.57578 9.00397 7.64031 9.10545 7.71924 9.21974C7.79814 9.334 7.9118 9.49886 7.9718 9.58613C8.03179 9.67335 8.15169 9.84613 8.23828 9.97009C8.32487 10.0941 8.43202 10.2481 8.47642 10.3123C9.66744 12.036 9.60947 11.9637 9.88496 12.0669L9.99225 12.1071H11.1332C12.2418 12.1071 12.2737 12.1062 12.2574 12.076C12.2482 12.0588 12.1743 11.9502 12.0933 11.8345C12.0122 11.7188 11.9043 11.5634 11.8536 11.4893C11.8028 11.415 11.7274 11.3061 11.6858 11.2471C11.6443 11.1881 11.5777 11.0927 11.5378 11.035C11.4979 10.9773 11.056 10.3403 10.5559 9.6195C10.0559 8.89868 9.58705 8.22252 9.51414 8.11692C9.44122 8.01133 9.35002 7.87984 9.31143 7.82477C9.17139 7.62474 9.03105 7.4213 8.94601 7.29501C8.85269 7.15644 8.84839 7.1529 8.81806 7.18925Z" fill="white"/>
<path d="M9.08046 6.80655L8.98306 6.94866L9.70115 7.98421C10.0961 8.55373 10.4622 9.08143 10.5147 9.15684C10.5672 9.23225 10.6427 9.34113 10.6824 9.39882C10.7222 9.45652 10.7888 9.55192 10.8303 9.61084C10.8718 9.66972 11.0303 9.89871 11.1826 10.1197C11.3348 10.3406 11.5358 10.6305 11.6293 10.7637C11.7228 10.8969 11.8572 11.0903 11.9279 11.1934C11.9986 11.2965 12.1349 11.4936 12.2307 11.6313C12.5836 12.1387 12.7091 12.3226 12.7091 12.3321C12.7091 12.3374 12.0845 12.3396 11.321 12.337L9.93279 12.3322L9.82383 12.2919C9.49458 12.17 9.45036 12.1238 8.90104 11.3284C8.79494 11.1747 8.64247 10.9546 8.56221 10.8393C8.48195 10.7239 8.36728 10.5582 8.30733 10.471C8.17433 10.2774 7.80144 9.74032 7.59152 9.44003C7.48966 9.29433 7.45214 9.23234 7.41871 9.23448C7.3922 9.23618 7.36828 9.27819 7.3169 9.35075C7.26998 9.417 7.24051 9.44939 7.23619 9.48483C7.22982 9.53721 7.27842 9.59628 7.40692 9.78122C7.50779 9.92644 7.63046 10.1038 7.67951 10.1754C7.72856 10.2469 7.80267 10.3538 7.84416 10.4128C7.88569 10.4717 7.95219 10.5672 7.99197 10.6249C8.0317 10.6826 8.13363 10.8291 8.21842 10.9507C8.37247 11.1713 8.84478 11.8525 8.98209 12.0519C9.18638 12.3487 9.46636 12.5516 9.80097 12.6454C9.95428 12.6883 13.3634 12.7159 13.3634 12.6741C13.3634 12.6639 13.211 12.4363 13.0248 12.1684C12.6579 11.6406 12.5058 11.4211 12.3633 11.2139C12.1985 10.9742 12.001 10.6901 11.7541 10.3374C11.706 10.2685 11.6177 10.1408 11.5579 10.0536C11.4982 9.96633 11.3723 9.78445 11.2782 9.64933C11.0028 9.25408 10.9896 9.23505 10.6142 8.69314C10.417 8.40833 10.1226 7.98377 9.96004 7.74962C9.57567 7.19607 9.48201 7.0606 9.33397 6.84412C9.25637 6.73065 9.22359 6.67756 9.19231 6.67843C9.16425 6.67921 9.13739 6.72346 9.08046 6.80655Z" fill="#FAFAFA"/>
<path fill-rule="evenodd" clip-rule="evenodd" d="M1.47433 1.23006C1.22011 0.862764 0.955955 0.481291 0.887389 0.382347L0.762695 0.202393L4.26255 0.211666L4.40017 0.258032C4.76576 0.381297 4.95102 0.531332 5.22713 0.927677C5.31482 1.05352 5.45446 1.2536 5.53753 1.37231C5.62055 1.49103 5.73131 1.65034 5.78362 1.72632C5.93046 1.9396 6.12073 2.21316 6.3499 2.54066C6.39812 2.60951 6.48638 2.73724 6.54606 2.8245C6.60575 2.91172 6.71462 3.06937 6.78802 3.17479C6.86147 3.28025 6.92151 3.37491 6.92151 3.38514C6.92151 3.39542 6.77589 3.61343 6.59793 3.86963C6.41996 4.12578 6.22235 4.41054 6.15875 4.50235C6.0952 4.59421 5.93376 4.82709 5.80001 5.01991C5.46641 5.50085 5.43345 5.5484 5.30809 5.72949C5.2477 5.81671 5.15866 5.94444 5.11022 6.01329C5.06174 6.08218 5.00974 6.15912 4.99463 6.18432C4.97951 6.20951 4.95959 6.23012 4.95036 6.23012C4.94113 6.23012 4.92114 6.20951 4.90593 6.18432C4.89077 6.15912 4.8204 6.05589 4.74963 5.95485C4.67887 5.85385 4.57198 5.69983 4.51216 5.61261C4.45234 5.52539 4.36377 5.39766 4.31538 5.32877C4.26699 5.25992 4.16106 5.10726 4.08002 4.98951C3.99897 4.8718 3.88465 4.7065 3.82606 4.62221C3.56129 4.24148 3.41022 4.02364 3.14673 3.64256C2.99118 3.4176 2.79739 3.13774 2.71608 3.02068C2.63472 2.90367 2.49131 2.69704 2.39729 2.56157C2.30332 2.4261 2.16122 2.22134 2.08149 2.10657C2.00181 1.99179 1.7286 1.59737 1.47433 1.23006Z" fill="#FAFAFA"/>
<path fill-rule="evenodd" clip-rule="evenodd" d="M9.892 0.221464C9.68564 0.26175 9.43392 0.379591 9.27851 0.50863C9.12669 0.634694 9.08556 0.686003 8.76703 1.14661C8.72892 1.20168 8.62836 1.34637 8.54358 1.46811C8.45879 1.58984 8.32144 1.78734 8.23841 1.90697C8.15539 2.02661 8.01061 2.23504 7.91672 2.37015C7.63481 2.77586 7.61939 2.79808 7.27124 3.30028C7.08664 3.56658 6.90195 3.83332 6.86081 3.89299C6.77787 4.01336 6.55226 4.33885 6.28402 4.72513C6.18715 4.86462 6.00778 5.12327 5.88537 5.29986C5.763 5.47649 5.62099 5.68107 5.56979 5.75451C5.35455 6.06346 4.45766 7.35638 4.33055 7.54093C4.25468 7.65112 4.15311 7.79761 4.10489 7.8665C4.05668 7.93535 3.93278 8.11412 3.82953 8.26372C3.72629 8.41332 3.5739 8.63299 3.49088 8.75188C3.40781 8.87077 3.27349 9.06394 3.19231 9.18108C2.51254 10.1625 1.8158 11.1672 1.53121 11.5766C1.45453 11.687 1.34399 11.8461 1.26078 11.9659L1.20934 12.04C1.12631 12.1596 0.996347 12.3457 0.920573 12.4536C0.844755 12.5615 0.782474 12.6591 0.782166 12.6706C0.781375 12.6985 3.98095 12.7011 4.18133 12.6733C4.64305 12.6094 4.9061 12.4208 5.27676 11.8877C5.7783 11.1665 5.86405 11.043 6.20833 10.5461C6.40555 10.2615 6.64548 9.91585 6.74152 9.77811C6.83751 9.64037 6.98313 9.43001 7.06506 9.31064C7.14698 9.19127 7.32125 8.93958 7.45236 8.75136C7.58348 8.56309 7.73845 8.33926 7.79682 8.25397C7.85515 8.16863 7.92178 8.07336 7.94485 8.04217C7.96789 8.01102 8.0532 7.88925 8.13433 7.77158C8.29384 7.54032 9.24321 6.17019 9.47994 5.82966C9.55972 5.71488 9.7161 5.48948 9.82743 5.32877C9.93876 5.16811 10.0845 4.95775 10.1513 4.8613C10.2181 4.76489 10.3171 4.62164 10.3712 4.54295C10.4253 4.46425 10.5323 4.31024 10.609 4.20071C10.7601 3.98462 11.5355 2.86719 11.7477 2.55938C11.8198 2.45488 11.9278 2.29903 11.9878 2.21303C12.0478 2.12699 12.1633 1.96082 12.2446 1.84368L12.3518 1.6893C12.4403 1.56179 12.5532 1.39928 12.6475 1.26348C12.9796 0.785297 13.0947 0.619341 13.2527 0.391139L13.3827 0.203311L11.6745 0.205148C10.735 0.206154 9.93287 0.213503 9.892 0.221464ZM11.8203 1.84779C12.348 1.09223 12.7091 0.565888 12.7091 0.552372C12.7091 0.524727 10.0869 0.535837 9.94953 0.564051C9.66454 0.622577 9.43124 0.791115 9.23126 1.083C9.1695 1.17307 9.06806 1.31974 9.00582 1.40893C8.94359 1.49812 8.84962 1.63337 8.79701 1.70948C8.7444 1.78554 8.52419 2.10324 8.30764 2.41543C8.09113 2.72766 7.87497 3.03945 7.82728 3.1083C7.70008 3.29202 7.31818 3.84194 6.8765 4.47733C6.73291 4.68393 6.54545 4.95438 6.45996 5.07835C6.37447 5.20231 6.11172 5.58173 5.87601 5.92147C5.64033 6.26122 5.4149 6.58639 5.37508 6.64409C5.33526 6.70178 5.26867 6.79719 5.22713 6.85606C5.18564 6.91494 5.04218 7.12149 4.90843 7.31505C4.77464 7.50856 4.57224 7.8001 4.45862 7.96286C4.34505 8.12567 4.19557 8.34149 4.12643 8.44249C4.05734 8.54349 3.92996 8.72756 3.84342 8.85153C3.75683 8.97549 3.63693 9.14827 3.57698 9.23549C3.51698 9.32276 3.42859 9.45048 3.38055 9.51933C3.33251 9.58818 3.24382 9.71591 3.18343 9.80317C3.0357 10.0165 2.8758 10.2468 2.40081 10.9301C1.83646 11.7419 1.43583 12.3239 1.43583 12.3319C1.43583 12.3373 2.06053 12.3397 2.82403 12.3371L4.21222 12.3324L4.31657 12.2946C4.62556 12.1829 4.71667 12.0911 5.17351 11.4309C5.57207 10.855 5.63 10.7714 5.78076 10.5544C5.835 10.4764 5.9106 10.3674 5.94875 10.3124C5.98694 10.2573 6.16288 10.0038 6.33984 9.74911C6.93513 8.89212 7.09002 8.66877 7.48313 8.10021C7.56251 7.98544 7.69832 7.79013 7.78496 7.66616C7.87159 7.5422 7.99914 7.35813 8.06832 7.25709C8.13754 7.15609 8.24118 7.00583 8.29867 6.92321C8.35612 6.84058 8.51026 6.61894 8.64119 6.43067C8.77217 6.24245 8.92864 6.01705 8.98895 5.92983C9.09215 5.78054 10.3608 3.95086 10.5112 3.73438C10.687 3.48146 10.8066 3.30903 11.2058 2.73264C11.4412 2.3929 11.7177 1.99472 11.8203 1.84779Z" fill="#FAFAFA"/>
<path d="M18.8456 0.881468C18.8456 0.506425 19.1497 0.202393 19.5247 0.202393H23.1238C23.7741 0.202393 24.373 0.322181 24.9206 0.561759C25.4682 0.789928 25.9417 1.10366 26.341 1.50296C26.7403 1.90225 27.054 2.3757 27.2822 2.92331C27.5104 3.45951 27.6245 4.03563 27.6245 4.65168C27.6245 5.26774 27.5104 5.84958 27.2822 6.39719C27.054 6.94479 26.7403 7.41824 26.341 7.81754C25.9417 8.21684 25.4625 8.53627 24.9035 8.77585C24.3559 9.00402 23.757 9.1181 23.1067 9.1181H21.173V12.0156C21.173 12.3906 20.8689 12.6947 20.4939 12.6947H18.8456V0.881468ZM21.173 2.35859V6.9619H22.9527C23.2949 6.9619 23.6087 6.90486 23.8939 6.79077C24.1791 6.66528 24.4244 6.49986 24.6297 6.2945C24.8351 6.07774 24.9948 5.83247 25.1089 5.55866C25.223 5.27345 25.28 4.97112 25.28 4.65168C25.28 4.33225 25.223 4.03564 25.1089 3.76183C24.9948 3.47662 24.8351 3.23133 24.6297 3.02598C24.4244 2.82063 24.1791 2.66091 23.8939 2.54683C23.6087 2.42133 23.2949 2.35859 22.9527 2.35859H21.173Z" fill="#FAFAFA"/>
<path d="M39.5188 0.202393H42.1542L47.5618 8.7074V0.202393H49.21C49.5851 0.202393 49.8891 0.506425 49.8891 0.881468V12.6947H47.4078L41.8461 3.91584V12.6947H40.1979C39.8228 12.6947 39.5188 12.3906 39.5188 12.0156V0.202393Z" fill="#FAFAFA"/>
<path d="M60.6944 0.202393H62.3427C62.7177 0.202393 63.0217 0.506425 63.0217 0.881468V10.47H66.9117C67.2868 10.47 67.5908 10.774 67.5908 11.1491V12.6947H60.6944V0.202393Z" fill="#FAFAFA"/>
<path d="M51.586 0.202393H58.3167C58.6917 0.202393 58.9957 0.506425 58.9957 0.881467V2.42704H53.9133V5.30197H58.9957V7.52662H53.9133V10.47H58.9957V12.6947H52.265C51.89 12.6947 51.586 12.3906 51.586 12.0156V0.202393Z" fill="#FAFAFA"/>
<path d="M31.4997 0.653752C31.5961 0.383197 31.8522 0.202519 32.1394 0.202519H34.0049L38.4542 12.6948H36.5077C36.2183 12.6948 35.9607 12.5113 35.866 12.2378L35.2541 10.4701H30.4112L29.6411 12.6948H27.2111L31.4997 0.653752ZM31.1984 8.24548H34.484L32.8412 3.50527L31.1984 8.24548Z" fill="#FAFAFA"/>
<path d="M12.5073 6.64542C12.5073 6.21491 12.8563 5.86592 13.2868 5.86592H16.9306V6.54964C16.9306 6.98015 16.5816 7.32914 16.1511 7.32914H12.5073V6.64542Z" fill="white"/>
</svg>
